<?xml version="1.0" standalone="no"?><svg height="480" version="1.1" width="640" xmlns="http://www.w3.org/2000/svg"><polygon fill="rgb(128,128,255)" points="350.3882,304.4191 371.3426,291.1265 367.8817,288.4506 348.8691,300.5176" stroke-width="0.5" stroke="white" /><polygon fill="rgb(128,128,255)" points="329.0442,317.1193 350.3882,304.4191 348.8691,300.5176 329.5016,312.0092" stroke-width="0.5" stroke="white" /><polygon fill="rgb(128,128,255)" points="371.3426,291.1265 391.9419,277.2161 386.5243,275.8151 367.8817,288.4506" stroke-width="0.5" stroke="white" /><polygon fill="rgb(128,128,255)" points="307.2679,329.2340 329.0442,317.1193 329.5016,312.0092 309.7893,322.9035" stroke-width="0.5" stroke="white" /><polygon fill="rgb(128,128,255)" points="391.9419,277.2161 412.2054,262.6484 404.7673,262.6078 386.5243,275.8151" stroke-width="0.5" stroke="white" /><polygon fill="rgb(100,242,175)" points="327.9672,265.7464 348.8691,300.5176 367.8817,288.4506 345.0014,254.8813" stroke-width="0.5" stroke="white" /><polygon fill="rgb(118,245,175)" points="310.4743,275.8393 329.5016,312.0092 348.8691,300.5176 327.9672,265.7464" stroke-width="0.5" stroke="white" /><polygon fill="rgb(82,236,175)" points="345.0014,254.8813 367.8817,288.4506 386.5243,275.8151 361.5204,243.2764" stroke-width="0.5" stroke="white" /><polygon fill="rgb(128,128,255)" points="285.0152,340.7463 307.2679,329.2340 309.7893,322.9035 289.7450,333.1578" stroke-width="0.5" stroke="white" /><polygon fill="rgb(137,245,175)" points="292.5731,285.1119 309.7893,322.9035 329.5016,312.0092 310.4743,275.8393" stroke-width="0.5" stroke="white" /><polygon fill="rgb(128,128,255)" points="412.2054,262.6484 432.1285,247.3737 422.5583,248.8212 404.7673,262.6078" stroke-width="0.5" stroke="white" /><polygon fill="rgb(66,228,175)" points="361.5204,243.2764 386.5243,275.8151 404.7673,262.6078 377.4536,230.9538" stroke-width="0.5" stroke="white" /><polygon fill="rgb(155,242,175)" points="274.3174,293.4948 289.7450,333.1578 309.7893,322.9035 292.5731,285.1119" stroke-width="0.5" stroke="white" /><polygon fill="rgb(128,128,255)" points="262.2491,351.6088 285.0152,340.7463 289.7450,333.1578 269.3948,342.7016" stroke-width="0.5" stroke="white" /><polygon fill="rgb(51,217,175)" points="377.4536,230.9538 404.7673,262.6078 422.5583,248.8212 392.7064,217.9309" stroke-width="0.5" stroke="white" /><polygon fill="rgb(128,128,255)" points="432.1285,247.3737 451.6727,231.3371 439.8106,234.4493 422.5583,248.8212" stroke-width="0.5" stroke="white" /><polygon fill="rgb(173,236,175)" points="255.7744,300.8909 269.3948,342.7016 289.7450,333.1578 274.3174,293.4948" stroke-width="0.5" stroke="white" /><polygon fill="rgb(128,128,255)" points="351.8877,304.3426 369.6217,293.0940 367.0663,291.2397 350.8491,301.5299" stroke-width="0.5" stroke="white" /><polygon fill="rgb(128,128,255)" points="333.8522,315.0794 351.8877,304.3426 350.8491,301.5299 334.3563,311.3285" stroke-width="0.5" stroke="white" /><polygon fill="rgb(128,128,255)" points="369.6217,293.0940 387.0112,281.3581 382.9375,280.5001 367.0663,291.2397" stroke-width="0.5" stroke="white" /><polygon fill="rgb(38,204,175)" points="392.7064,217.9309 422.5583,248.8212 439.8106,234.4493 407.1507,204.2278" stroke-width="0.5" stroke="white" /><polygon fill="rgb(128,128,255)" points="315.5547,325.2675 333.8522,315.0794 334.3563,311.3285 317.6562,320.5833" stroke-width="0.5" stroke="white" /><polygon fill="rgb(99,246,162)" points="320.0836,250.7847 350.8491,301.5299 367.0663,291.2397 333.9638,241.9131" stroke-width="0.5" stroke="white" /><polygon fill="rgb(128,128,255)" points="238.9504,361.7347 262.2491,351.6088 269.3948,342.7016 248.7899,351.4287" stroke-width="0.5" stroke="white" /><polygon fill="rgb(118,249,162)" points="305.7962,258.9316 334.3563,311.3285 350.8491,301.5299 320.0836,250.7847" stroke-width="0.5" stroke="white" /><polygon fill="rgb(128,128,255)" points="387.0112,281.3581 404.0011,269.1535 398.3820,269.3497 382.9375,280.5001" stroke-width="0.5" stroke="white" /><polygon fill="rgb(81,240,162)" points="333.9638,241.9131 367.0663,291.2397 382.9375,280.5001 347.3357,232.3787" stroke-width="0.5" stroke="white" /><polygon fill="rgb(137,249,162)" points="291.2006,266.2832 317.6562,320.5833 334.3563,311.3285 305.7962,258.9316" stroke-width="0.5" stroke="white" /><polygon fill="rgb(64,232,162)" points="347.3357,232.3787 382.9375,280.5001 398.3820,269.3497 360.0890,222.2392" stroke-width="0.5" stroke="white" /><polygon fill="rgb(128,128,255)" points="451.6727,231.3371 470.7512,214.4846 456.3896,219.4964 439.8106,234.4493" stroke-width="0.5" stroke="white" /><polygon fill="rgb(128,128,255)" points="297.0405,334.8526 315.5547,325.2675 317.6562,320.5833 300.8242,329.2275" stroke-width="0.5" stroke="white" /><polygon fill="rgb(189,228,175)" points="237.0368,307.1693 248.7899,351.4287 269.3948,342.7016 255.7744,300.8909" stroke-width="0.5" stroke="white" /><polygon fill="rgb(128,128,255)" points="404.0011,269.1535 420.5150,256.4977 413.2997,257.8284 398.3820,269.3497" stroke-width="0.5" stroke="white" /><polygon fill="rgb(156,246,162)" points="276.4016,272.7554 300.8242,329.2275 317.6562,320.5833 291.2006,266.2832" stroke-width="0.5" stroke="white" /><polygon fill="rgb(27,189,175)" points="407.1507,204.2278 439.8106,234.4493 456.3896,219.4964 420.6128,189.8756" stroke-width="0.5" stroke="white" /><polygon fill="rgb(48,220,162)" points="360.0890,222.2392 398.3820,269.3497 413.2997,257.8284 372.0966,211.5537" stroke-width="0.5" stroke="white" /><polygon fill="rgb(128,128,255)" points="278.3708,343.7561 297.0405,334.8526 300.8242,329.2275 283.9524,337.1732" stroke-width="0.5" stroke="white" /><polygon fill="rgb(174,240,162)" points="261.5183,278.2475 283.9524,337.1732 300.8242,329.2275 276.4016,272.7554" stroke-width="0.5" stroke="white" /><polygon fill="rgb(128,128,255)" points="215.1330,370.9849 238.9504,361.7347 248.7899,351.4287 228.0229,359.1865" stroke-width="0.5" stroke="white" /><polygon fill="rgb(128,128,255)" points="420.5150,256.4977 436.4445,243.4144 427.5616,245.9844 413.2997,257.8284" stroke-width="0.5" stroke="white" /><polygon fill="rgb(35,207,162)" points="372.0966,211.5537 413.2997,257.8284 427.5616,245.9844 383.2077,200.3887" stroke-width="0.5" stroke="white" /><polygon fill="rgb(204,217,175)" points="218.2372,312.1578 228.0229,359.1865 248.7899,351.4287 237.0368,307.1693" stroke-width="0.5" stroke="white" /><polygon fill="rgb(128,128,255)" points="470.7512,214.4846 489.2086,196.7731 472.0951,203.9876 456.3896,219.4964" stroke-width="0.5" stroke="white" /><polygon fill="rgb(128,128,255)" points="259.6346,351.8683 278.3708,343.7561 283.9524,337.1732 267.1608,344.3062" stroke-width="0.5" stroke="white" /><polygon fill="rgb(19,173,175)" points="420.6128,189.8756 456.3896,219.4964 472.0951,203.9876 432.8598,174.9273" stroke-width="0.5" stroke="white" /><polygon fill="rgb(191,232,162)" points="246.6935,282.6375 267.1608,344.3062 283.9524,337.1732 261.5183,278.2475" stroke-width="0.5" stroke="white" /><polygon fill="rgb(98,249,152)" points="308.9578,230.2914 355.5213,306.4908 368.5045,298.2594 319.2041,223.7238" stroke-width="0.5" stroke="white" /><polygon fill="rgb(118,252,152)" points="298.3737,236.2287 342.3555,314.3485 355.5213,306.4908 308.9578,230.2914" stroke-width="0.5" stroke="white" /><polygon fill="rgb(80,243,152)" points="319.2041,223.7238 368.5045,298.2594 381.1958,289.7221 328.9912,216.6019" stroke-width="0.5" stroke="white" /><polygon fill="rgb(128,128,255)" points="436.4445,243.4144 451.6366,229.9417 440.9987,233.8823 427.5616,245.9844" stroke-width="0.5" stroke="white" /><polygon fill="rgb(128,128,255)" points="356.0051,307.9528 369.8931,299.1493 368.5045,298.2594 355.5213,306.4908" stroke-width="0.5" stroke="white" /><polygon fill="rgb(23,191,162)" points="383.2077,200.3887 427.5616,245.9844 440.9987,233.8823 393.2399,188.8254" stroke-width="0.5" stroke="white" /><polygon fill="rgb(128,128,255)" points="341.9207,316.3673 356.0051,307.9528 355.5213,306.4908 342.3555,314.3485" stroke-width="0.5" stroke="white" /><polygon fill="rgb(137,252,152)" points="287.5741,241.4581 329.1166,321.7603 342.3555,314.3485 298.3737,236.2287" stroke-width="0.5" stroke="white" /><polygon fill="rgb(128,128,255)" points="369.8931,299.1493 383.4840,290.0193 381.1958,289.7221 368.5045,298.2594" stroke-width="0.5" stroke="white" /><polygon fill="rgb(62,234,152)" points="328.9912,216.6019 381.1958,289.7221 393.4801,280.9470 338.1946,209.0031" stroke-width="0.5" stroke="white" /><polygon fill="rgb(128,128,255)" points="327.7412,324.3248 341.9207,316.3673 342.3555,314.3485 329.1166,321.7603" stroke-width="0.5" stroke="white" /><polygon fill="rgb(128,128,255)" points="383.4840,290.0193 396.6695,280.6247 393.4801,280.9470 381.1958,289.7221" stroke-width="0.5" stroke="white" /><polygon fill="rgb(157,249,152)" points="276.6873,245.8979 315.9220,328.6457 329.1166,321.7603 287.5741,241.4581" stroke-width="0.5" stroke="white" /><polygon fill="rgb(128,128,255)" points="190.8662,379.1512 215.1330,370.9849 228.0229,359.1865 207.2490,365.7638" stroke-width="0.5" stroke="white" /><polygon fill="rgb(47,222,152)" points="338.1946,209.0031 393.4801,280.9470 405.2292,272.0068 346.6825,201.0092" stroke-width="0.5" stroke="white" /><polygon fill="rgb(128,128,255)" points="313.5755,331.7476 327.7412,324.3248 329.1166,321.7603 315.9220,328.6457" stroke-width="0.5" stroke="white" /><polygon fill="rgb(217,204,175)" points="199.5673,315.6351 207.2490,365.7638 228.0229,359.1865 218.2372,312.1578" stroke-width="0.5" stroke="white" /><polygon fill="rgb(207,220,162)" points="232.1042,285.7802 250.6111,350.4784 267.1608,344.3062 246.6935,282.6375" stroke-width="0.5" stroke="white" /><polygon fill="rgb(128,128,255)" points="240.9642,359.0394 259.6346,351.8683 267.1608,344.3062 250.6111,350.4784" stroke-width="0.5" stroke="white" /><polygon fill="rgb(128,128,255)" points="396.6695,280.6247 409.3270,271.0319 405.2292,272.0068 393.4801,280.9470" stroke-width="0.5" stroke="white" /><polygon fill="rgb(175,243,152)" points="265.8522,249.4612 302.9038,334.9121 315.9220,328.6457 276.6873,245.8979" stroke-width="0.5" stroke="white" /><polygon fill="rgb(15,174,162)" points="393.2399,188.8254 440.9987,233.8823 453.3898,221.6127 401.9729,176.9685" stroke-width="0.5" stroke="white" /><polygon fill="rgb(33,208,152)" points="346.6825,201.0092 405.2292,272.0068 416.2956,262.9838 354.3126,192.7108" stroke-width="0.5" stroke="white" /><polygon fill="rgb(128,128,255)" points="489.2086,196.7731 506.7941,178.1843 486.6391,187.9843 472.0951,203.9876" stroke-width="0.5" stroke="white" /><polygon fill="rgb(128,128,255)" points="451.6366,229.9417 465.8783,216.1428 453.3898,221.6127 440.9987,233.8823" stroke-width="0.5" stroke="white" /><polygon fill="rgb(13,155,175)" points="432.8598,174.9273 472.0951,203.9876 486.6391,187.9843 443.5840,159.4729" stroke-width="0.5" stroke="white" /><polygon fill="rgb(128,128,255)" points="299.5485,338.5435 313.5755,331.7476 315.9220,328.6457 302.9038,334.9121" stroke-width="0.5" stroke="white" /><polygon fill="rgb(128,128,255)" points="409.3270,271.0319 421.3114,261.3172 416.2956,262.9838 405.2292,272.0068" stroke-width="0.5" stroke="white" /><polygon fill="rgb(193,234,152)" points="255.2235,252.0547 290.2168,340.4512 302.9038,334.9121 265.8522,249.4612" stroke-width="0.5" stroke="white" /><polygon fill="rgb(21,193,152)" points="354.3126,192.7108 416.2956,262.9838 426.5055,253.9760 360.9293,184.2112" stroke-width="0.5" stroke="white" /><polygon fill="rgb(220,207,162)" points="217.9735,287.5050 234.5223,355.5012 250.6111,350.4784 232.1042,285.7802" stroke-width="0.5" stroke="white" /><polygon fill="rgb(128,128,255)" points="285.8102,344.6019 299.5485,338.5435 302.9038,334.9121 290.2168,340.4512" stroke-width="0.5" stroke="white" /><polygon fill="rgb(128,128,255)" points="222.5542,365.0692 240.9642,359.0394 250.6111,350.4784 234.5223,355.5012" stroke-width="0.5" stroke="white" /><polygon fill="rgb(128,128,255)" points="421.3114,261.3172 432.4477,251.5735 426.5055,253.9760 416.2956,262.9838" stroke-width="0.5" stroke="white" /><polygon fill="rgb(208,222,152)" points="244.9764,253.5792 278.0468,345.1356 290.2168,340.4512 255.2235,252.0547" stroke-width="0.5" stroke="white" /><polygon fill="rgb(9,156,162)" points="401.9729,176.9685 453.3898,221.6127 464.4477,209.3046 409.1416,164.9568" stroke-width="0.5" stroke="white" /><polygon fill="rgb(228,189,175)" points="181.3009,317.3237 186.7151,370.8750 207.2490,365.7638 199.5673,315.6351" stroke-width="0.5" stroke="white" /><polygon fill="rgb(128,128,255)" points="166.3075,385.9341 190.8662,379.1512 207.2490,365.7638 186.7151,370.8750" stroke-width="0.5" stroke="white" /><polygon fill="rgb(12,175,152)" points="360.9293,184.2112 426.5055,253.9760 435.6529,245.1029 366.3628,175.6311" stroke-width="0.5" stroke="white" /><polygon fill="rgb(128,128,255)" points="465.8783,216.1428 478.8782,202.1205 464.4477,209.3046 453.3898,221.6127" stroke-width="0.5" stroke="white" /><polygon fill="rgb(98,250,144)" points="290.8981,197.9005 366.2493,320.2222 374.8639,314.7721 296.3977,194.3593" stroke-width="0.5" stroke="white" /><polygon fill="rgb(118,253,144)" points="285.1827,201.0233 357.5635,325.4676 366.2493,320.2222 290.8981,197.9005" stroke-width="0.5" stroke="white" /><polygon fill="rgb(79,244,144)" points="296.3977,194.3593 374.8639,314.7721 383.2876,309.1926 301.5840,190.4623" stroke-width="0.5" stroke="white" /><polygon fill="rgb(137,253,144)" points="279.3523,203.6696 348.9273,330.4331 357.5635,325.4676 285.1827,201.0233" stroke-width="0.5" stroke="white" /><polygon fill="rgb(128,128,255)" points="272.5449,349.7891 285.8102,344.6019 290.2168,340.4512 278.0468,345.1356" stroke-width="0.5" stroke="white" /><polygon fill="rgb(62,235,144)" points="301.5840,190.4623 383.2876,309.1926 391.3994,303.5606 306.3614,186.2761" stroke-width="0.5" stroke="white" /><polygon fill="rgb(10,137,175)" points="443.5840,159.4729 486.6391,187.9843 499.6175,171.6057 452.3860,143.6584" stroke-width="0.5" stroke="white" /><polygon fill="rgb(128,128,255)" points="506.7941,178.1843 523.1226,158.7483 499.6175,171.6057 486.6391,187.9843" stroke-width="0.5" stroke="white" /><polygon fill="rgb(157,250,144)" points="273.5109,205.7856 340.4661,335.0415 348.9273,330.4331 279.3523,203.6696" stroke-width="0.5" stroke="white" /><polygon fill="rgb(46,223,144)" points="306.3614,186.2761 391.3994,303.5606 399.0740,297.9568 310.6371,181.8728" stroke-width="0.5" stroke="white" /><polygon fill="rgb(222,208,152)" points="235.3112,253.9315 266.6188,348.8168 278.0468,345.1356 244.9764,253.5792" stroke-width="0.5" stroke="white" /><polygon fill="rgb(128,128,255)" points="432.4477,251.5735 442.5228,241.9171 435.6529,245.1029 426.5055,253.9760" stroke-width="0.5" stroke="white" /><polygon fill="rgb(232,191,162)" points="204.5826,287.6164 219.1903,359.1386 234.5223,355.5012 217.9735,287.5050" stroke-width="0.5" stroke="white" /><polygon fill="rgb(176,244,144)" points="267.7665,207.3217 332.3120,339.2129 340.4661,335.0415 273.5109,205.7856" stroke-width="0.5" stroke="white" /><polygon fill="rgb(32,209,144)" points="310.6371,181.8728 399.0740,297.9568 406.1795,292.4678 314.3202,177.3300" stroke-width="0.5" stroke="white" /><polygon fill="rgb(6,157,152)" points="366.3628,175.6311 435.6529,245.1029 443.4939,236.5123 370.4287,167.1136" stroke-width="0.5" stroke="white" /><polygon fill="rgb(128,128,255)" points="366.4030,320.8959 375.5785,315.0914 374.8639,314.7721 366.2493,320.2222" stroke-width="0.5" stroke="white" /><polygon fill="rgb(128,128,255)" points="204.6866,369.6965 222.5542,365.0692 234.5223,355.5012 219.1903,359.1386" stroke-width="0.5" stroke="white" /><polygon fill="rgb(128,128,255)" points="357.1508,326.4859 366.4030,320.8959 366.2493,320.2222 357.5635,325.4676" stroke-width="0.5" stroke="white" /><polygon fill="rgb(6,137,162)" points="409.1416,164.9568 464.4477,209.3046 473.8046,197.1406 414.4325,152.9743" stroke-width="0.5" stroke="white" /><polygon fill="rgb(128,128,255)" points="375.5785,315.0914 384.5563,309.1485 383.2876,309.1926 374.8639,314.7721" stroke-width="0.5" stroke="white" /><polygon fill="rgb(193,235,144)" points="262.2312,208.2337 324.6068,342.8633 332.3120,339.2129 267.7665,207.3217" stroke-width="0.5" stroke="white" /><polygon fill="rgb(128,128,255)" points="347.9440,331.7850 357.1508,326.4859 357.5635,325.4676 348.9273,330.4331" stroke-width="0.5" stroke="white" /><polygon fill="rgb(20,193,144)" points="314.3202,177.3300 406.1795,292.4678 412.5762,287.1870 317.3233,172.7316" stroke-width="0.5" stroke="white" /><polygon fill="rgb(128,128,255)" points="384.5563,309.1485 393.2134,303.1448 391.3994,303.5606 383.2876,309.1926" stroke-width="0.5" stroke="white" /><polygon fill="rgb(128,128,255)" points="259.9821,353.9454 272.5449,349.7891 278.0468,345.1356 266.6188,348.8168" stroke-width="0.5" stroke="white" /><polygon fill="rgb(128,128,255)" points="338.9099,336.7143 347.9440,331.7850 348.9273,330.4331 340.4661,335.0415" stroke-width="0.5" stroke="white" /><polygon fill="rgb(128,128,255)" points="478.8782,202.1205 490.2446,188.0357 473.8046,197.1406 464.4477,209.3046" stroke-width="0.5" stroke="white" /><polygon fill="rgb(234,193,152)" points="226.4561,253.0080 256.2050,351.3238 266.6188,348.8168 235.3112,253.9315" stroke-width="0.5" stroke="white" /><polygon fill="rgb(209,223,144)" points="257.0214,208.4836 317.5036,345.9045 324.6068,342.8633 262.2312,208.2337" stroke-width="0.5" stroke="white" /><polygon fill="rgb(128,128,255)" points="393.2134,303.1448 401.4217,297.1622 399.0740,297.9568 391.3994,303.5606" stroke-width="0.5" stroke="white" /><polygon fill="rgb(236,173,175)" points="163.8221,316.8843 166.7983,374.1429 186.7151,370.8750 181.3009,317.3237" stroke-width="0.5" stroke="white" /><polygon fill="rgb(128,128,255)" points="442.5228,241.9171 451.2781,232.4961 443.4939,236.5123 435.6529,245.1029" stroke-width="0.5" stroke="white" /><polygon fill="rgb(11,176,144)" points="317.3233,172.7316 412.5762,287.1870 418.1154,282.2172 319.5635,168.1677" stroke-width="0.5" stroke="white" /><polygon fill="rgb(128,128,255)" points="330.1837,341.1910 338.9099,336.7143 340.4661,335.0415 332.3120,339.2129" stroke-width="0.5" stroke="white" /><polygon fill="rgb(3,137,152)" points="370.4287,167.1136 443.4939,236.5123 449.7432,228.3868 372.9316,158.8279" stroke-width="0.5" stroke="white" /><polygon fill="rgb(128,128,255)" points="141.7507,390.9134 166.3075,385.9341 186.7151,370.8750 166.7983,374.1429" stroke-width="0.5" stroke="white" /><polygon fill="rgb(128,128,255)" points="401.4217,297.1622 409.0452,291.2889 406.1795,292.4678 399.0740,297.9568" stroke-width="0.5" stroke="white" /><polygon fill="rgb(223,209,144)" points="252.2565,208.0419 311.1678,348.2447 317.5036,345.9045 257.0214,208.4836" stroke-width="0.5" stroke="white" /><polygon fill="rgb(240,174,162)" points="192.2835,285.8982 205.0089,361.1017 219.1903,359.1386 204.5826,287.6164" stroke-width="0.5" stroke="white" /><polygon fill="rgb(10,118,175)" points="452.3860,143.6584 499.6175,171.6057 510.4763,155.0592 458.7581,127.7111" stroke-width="0.5" stroke="white" /><polygon fill="rgb(5,157,144)" points="319.5635,168.1677 418.1154,282.2172 422.6402,277.6704 320.9644,163.7354" stroke-width="0.5" stroke="white" /><polygon fill="rgb(128,128,255)" points="321.9118,345.1272 330.1837,341.1910 332.3120,339.2129 324.6068,342.8633" stroke-width="0.5" stroke="white" /><polygon fill="rgb(128,128,255)" points="248.4069,356.8823 259.9821,353.9454 266.6188,348.8168 256.2050,351.3238" stroke-width="0.5" stroke="white" /><polygon fill="rgb(128,128,255)" points="409.0452,291.2889 415.9375,285.6213 412.5762,287.1870 406.1795,292.4678" stroke-width="0.5" stroke="white" /><polygon fill="rgb(6,118,162)" points="414.4325,152.9743 473.8046,197.1406 480.9989,185.3742 417.4830,141.2639" stroke-width="0.5" stroke="white" /><polygon fill="rgb(128,128,255)" points="523.1226,158.7483 537.6238,138.5781 510.4763,155.0592 499.6175,171.6057" stroke-width="0.5" stroke="white" /><polygon fill="rgb(243,175,152)" points="218.6686,250.7109 247.1311,352.4652 256.2050,351.3238 226.4561,253.0080" stroke-width="0.5" stroke="white" /><polygon fill="rgb(235,193,144)" points="248.0582,206.8892 305.7764,349.7904 311.1678,348.2447 252.2565,208.0419" stroke-width="0.5" stroke="white" /><polygon fill="rgb(128,128,255)" points="187.7607,372.5870 204.6866,369.6965 219.1903,359.1386 205.0089,361.1017" stroke-width="0.5" stroke="white" /><polygon fill="rgb(128,128,255)" points="451.2781,232.4961 458.4035,223.4991 449.7432,228.3868 443.4939,236.5123" stroke-width="0.5" stroke="white" /><polygon fill="rgb(2,137,144)" points="320.9644,163.7354 422.6402,277.6704 425.9881,273.6683 321.4594,159.5375" stroke-width="0.5" stroke="white" /><polygon fill="rgb(128,128,255)" points="314.2545,348.4289 321.9118,345.1272 324.6068,342.8633 317.5036,345.9045" stroke-width="0.5" stroke="white" /><polygon fill="rgb(3,118,152)" points="372.9316,158.8279 449.7432,228.3868 454.0745,220.9498 373.6709,150.9732" stroke-width="0.5" stroke="white" /><polygon fill="rgb(128,128,255)" points="415.9375,285.6213 421.9411,280.2666 418.1154,282.2172 412.5762,287.1870" stroke-width="0.5" stroke="white" /><polygon fill="rgb(244,176,144)" points="244.5474,205.0195 301.5152,350.4491 305.7764,349.7904 248.0582,206.8892" stroke-width="0.5" stroke="white" /><polygon fill="rgb(128,128,255)" points="490.2446,188.0357 499.4620,174.1319 480.9989,185.3742 473.8046,197.1406" stroke-width="0.5" stroke="white" /><polygon fill="rgb(2,118,144)" points="321.4594,159.5375 425.9881,273.6683 427.9956,270.3405 320.9950,155.6817" stroke-width="0.5" stroke="white" /><polygon fill="rgb(128,128,255)" points="307.3870,350.9971 314.2545,348.4289 317.5036,345.9045 311.1678,348.2447" stroke-width="0.5" stroke="white" /><polygon fill="rgb(242,155,175)" points="147.6580,313.9165 148.0546,375.0826 166.7983,374.1429 163.8221,316.8843" stroke-width="0.5" stroke="white" /><polygon fill="rgb(246,156,162)" points="181.5083,282.1230 192.4919,361.0480 205.0089,361.1017 192.2835,285.8982" stroke-width="0.5" stroke="white" /><polygon fill="rgb(128,128,255)" points="238.1694,358.3824 248.4069,356.8823 256.2050,351.3238 247.1311,352.4652" stroke-width="0.5" stroke="white" /><polygon fill="rgb(128,128,255)" points="421.9411,280.2666 426.8871,275.3432 422.6402,277.6704 418.1154,282.2172" stroke-width="0.5" stroke="white" /><polygon fill="rgb(249,157,152)" points="212.2335,246.9573 239.7785,352.0342 247.1311,352.4652 218.6686,250.7109" stroke-width="0.5" stroke="white" /><polygon fill="rgb(250,157,144)" points="241.8407,202.4429 298.5737,350.1349 301.5152,350.4491 244.5474,205.0195" stroke-width="0.5" stroke="white" /><polygon fill="rgb(128,128,255)" points="458.4035,223.4991 463.5341,215.1633 454.0745,220.9498 449.7432,228.3868" stroke-width="0.5" stroke="white" /><polygon fill="rgb(5,98,144)" points="320.9950,155.6817 427.9956,270.3405 428.5060,267.8213 319.5358,152.2777" stroke-width="0.5" stroke="white" /><polygon fill="rgb(6,98,152)" points="373.6709,150.9732 454.0745,220.9498 456.1259,214.4692 372.4518,143.7795" stroke-width="0.5" stroke="white" /><polygon fill="rgb(9,99,162)" points="417.4830,141.2639 480.9989,185.3742 485.4664,174.3500 417.8889,130.1395" stroke-width="0.5" stroke="white" /><polygon fill="rgb(128,128,255)" points="117.6950,393.5137 141.7507,390.9134 166.7983,374.1429 148.0546,375.0826" stroke-width="0.5" stroke="white" /><polygon fill="rgb(128,128,255)" points="301.4997,352.7286 307.3870,350.9971 311.1678,348.2447 305.7764,349.7904" stroke-width="0.5" stroke="white" /><polygon fill="rgb(13,100,175)" points="458.7581,127.7111 510.4763,155.0592 518.4748,138.6799 462.0725,111.9704" stroke-width="0.5" stroke="white" /><polygon fill="rgb(128,128,255)" points="426.8871,275.3432 430.5975,270.9815 425.9881,273.6683 422.6402,277.6704" stroke-width="0.5" stroke="white" /><polygon fill="rgb(128,128,255)" points="172.3287,373.3255 187.7607,372.5870 205.0089,361.1017 192.4919,361.0480" stroke-width="0.5" stroke="white" /><polygon fill="rgb(253,137,144)" points="240.0459,199.1888 297.1366,348.7744 298.5737,350.1349 241.8407,202.4429" stroke-width="0.5" stroke="white" /><polygon fill="rgb(11,79,144)" points="319.5358,152.2777 428.5060,267.8213 427.3801,266.2441 317.0692,149.4349" stroke-width="0.5" stroke="white" /><polygon fill="rgb(252,137,152)" points="207.4552,241.6919 234.5798,349.8200 239.7785,352.0342 212.2335,246.9573" stroke-width="0.5" stroke="white" /><polygon fill="rgb(128,128,255)" points="537.6238,138.5781 549.4763,117.9231 518.4748,138.6799 510.4763,155.0592" stroke-width="0.5" stroke="white" /><polygon fill="rgb(128,128,255)" points="296.7960,353.5197 301.4997,352.7286 305.7764,349.7904 301.5152,350.4491" stroke-width="0.5" stroke="white" /><polygon fill="rgb(128,128,255)" points="229.6914,358.2044 238.1694,358.3824 247.1311,352.4652 239.7785,352.0342" stroke-width="0.5" stroke="white" /><polygon fill="rgb(128,128,255)" points="499.4620,174.1319 505.8687,160.7644 485.4664,174.3500 480.9989,185.3742" stroke-width="0.5" stroke="white" /><polygon fill="rgb(128,128,255)" points="430.5975,270.9815 432.8899,267.3229 427.9956,270.3405 425.9881,273.6683" stroke-width="0.5" stroke="white" /><polygon fill="rgb(12,80,152)" points="372.4518,143.7795 456.1259,214.4692 455.5159,209.2565 369.1007,137.5055" stroke-width="0.5" stroke="white" /><polygon fill="rgb(249,137,162)" points="172.7730,276.0690 182.2908,358.5876 192.4919,361.0480 181.5083,282.1230" stroke-width="0.5" stroke="white" /><polygon fill="rgb(2,137,111)" points="234.3250,197.2142 235.2933,201.5035 291.7818,351.8957 291.8754,349.3277" stroke-width="0.5" stroke="white" /><polygon fill="rgb(128,128,255)" points="463.5341,215.1633 466.2544,207.7815 456.1259,214.4692 454.0745,220.9498" stroke-width="0.5" stroke="white" /><polygon fill="rgb(235,193,111)" points="321.1404,146.0454 317.3507,143.5518 429.5648,262.0540 432.5211,262.7121" stroke-width="0.5" stroke="white" /><polygon fill="rgb(245,137,175)" points="133.5104,307.9689 131.2770,373.0893 148.0546,375.0826 147.6580,313.9165" stroke-width="0.5" stroke="white" /><polygon fill="rgb(128,128,255)" points="293.4868,353.2712 296.7960,353.5197 301.5152,350.4491 298.5737,350.1349" stroke-width="0.5" stroke="white" /><polygon fill="rgb(15,81,162)" points="417.8889,130.1395 485.4664,174.3500 486.5433,164.5215 415.2218,119.9959" stroke-width="0.5" stroke="white" /><polygon fill="rgb(5,157,111)" points="234.5588,192.2933 234.3250,197.2142 291.8754,349.3277 293.9296,345.5353" stroke-width="0.5" stroke="white" /><polygon fill="rgb(128,128,255)" points="432.8899,267.3229 433.5855,264.5163 428.5060,267.8213 427.9956,270.3405" stroke-width="0.5" stroke="white" /><polygon fill="rgb(252,118,152)" points="204.6447,234.9018 232.0041,345.6265 234.5798,349.8200 207.4552,241.6919" stroke-width="0.5" stroke="white" /><polygon fill="rgb(223,209,111)" points="317.3507,143.5518 312.4889,141.8997 424.6358,262.6664 429.5648,262.0540" stroke-width="0.5" stroke="white" /><polygon fill="rgb(19,82,175)" points="462.0725,111.9704 518.4748,138.6799 522.6526,122.9814 461.5816,96.9224" stroke-width="0.5" stroke="white" /><polygon fill="rgb(128,128,255)" points="223.4652,356.0928 229.6914,358.2044 239.7785,352.0342 234.5798,349.8200" stroke-width="0.5" stroke="white" /><polygon fill="rgb(128,128,255)" points="159.1319,371.4135 172.3287,373.3255 192.4919,361.0480 182.2908,358.5876" stroke-width="0.5" stroke="white" /><polygon fill="rgb(21,62,152)" points="369.1007,137.5055 455.5159,209.2565 451.8704,205.6588 363.4871,132.4314" stroke-width="0.5" stroke="white" /><polygon fill="rgb(128,128,255)" points="291.7818,351.8957 293.4868,353.2712 298.5737,350.1349 297.1366,348.7744" stroke-width="0.5" stroke="white" /><polygon fill="rgb(128,128,255)" points="94.9397,392.9660 117.6950,393.5137 148.0546,375.0826 131.2770,373.0893" stroke-width="0.5" stroke="white" /><polygon fill="rgb(11,176,111)" points="236.0510,186.8513 234.5588,192.2933 293.9296,345.5353 298.0511,340.5328" stroke-width="0.5" stroke="white" /><polygon fill="rgb(128,128,255)" points="466.2544,207.7815 466.1111,201.7044 455.5159,209.2565 456.1259,214.4692" stroke-width="0.5" stroke="white" /><polygon fill="rgb(209,223,111)" points="312.4889,141.8997 306.6439,141.1814 417.7256,264.6392 424.6358,262.6664" stroke-width="0.5" stroke="white" /><polygon fill="rgb(128,128,255)" points="433.5855,264.5163 432.5211,262.7121 427.3801,266.2441 428.5060,267.8213" stroke-width="0.5" stroke="white" /><polygon fill="rgb(249,118,162)" points="166.6704,267.5488 175.2012,353.3042 182.2908,358.5876 172.7730,276.0690" stroke-width="0.5" stroke="white" /><polygon fill="rgb(128,128,255)" points="505.8687,160.7644 508.6437,148.4337 486.5433,164.5215 485.4664,174.3500" stroke-width="0.5" stroke="white" /><polygon fill="rgb(20,193,111)" points="238.8174,181.0286 236.0510,186.8513 298.0511,340.5328 304.2685,334.3930" stroke-width="0.5" stroke="white" /><polygon fill="rgb(128,128,255)" points="291.8754,349.3277 291.7818,351.8957 297.1366,348.7744 297.3709,346.3163" stroke-width="0.5" stroke="white" /><polygon fill="rgb(193,235,111)" points="306.6439,141.1814 299.9495,141.4631 408.9183,268.0124 417.7256,264.6392" stroke-width="0.5" stroke="white" /><polygon fill="rgb(128,128,255)" points="549.4763,117.9231 557.5284,97.2460 522.6526,122.9814 518.4748,138.6799" stroke-width="0.5" stroke="white" /><polygon fill="rgb(23,64,162)" points="415.2218,119.9959 486.5433,164.5215 483.4896,156.4629 409.0630,111.3111" stroke-width="0.5" stroke="white" /><polygon fill="rgb(6,157,103)" points="192.7432,230.2036 193.7710,239.3480 220.0414,351.7984 219.9984,345.1098" stroke-width="0.5" stroke="white" /><polygon fill="rgb(128,128,255)" points="432.5211,262.7121 429.5648,262.0540 424.5105,265.7334 427.3801,266.2441" stroke-width="0.5" stroke="white" /><polygon fill="rgb(32,209,111)" points="242.8256,174.9929 238.8174,181.0286 304.2685,334.3930 312.5098,327.2562" stroke-width="0.5" stroke="white" /><polygon fill="rgb(128,128,255)" points="220.0414,351.7984 223.4652,356.0928 234.5798,349.8200 232.0041,345.6265" stroke-width="0.5" stroke="white" /><polygon fill="rgb(245,118,175)" points="122.2817,298.5682 117.5557,367.4428 131.2770,373.0893 133.5104,307.9689" stroke-width="0.5" stroke="white" /><polygon fill="rgb(176,244,111)" points="299.9495,141.4631 292.5844,142.7770 398.4066,272.7601 408.9183,268.0124" stroke-width="0.5" stroke="white" /><polygon fill="rgb(222,208,103)" points="372.0697,124.2958 363.4384,119.9467 455.4243,195.1094 462.6420,197.3348" stroke-width="0.5" stroke="white" /><polygon fill="rgb(46,223,111)" points="247.9907,168.9330 242.8256,174.9929 312.5098,327.2562 322.5871,319.3330" stroke-width="0.5" stroke="white" /><polygon fill="rgb(128,128,255)" points="293.9296,345.5353 291.8754,349.3277 297.3709,346.3163 299.4106,342.7407" stroke-width="0.5" stroke="white" /><polygon fill="rgb(128,128,255)" points="466.1111,201.7044 462.6420,197.3348 451.8704,205.6588 455.5159,209.2565" stroke-width="0.5" stroke="white" /><polygon fill="rgb(157,250,111)" points="292.5844,142.7770 284.7674,145.1156 386.4974,278.7795 398.4066,272.7601" stroke-width="0.5" stroke="white" /><polygon fill="rgb(128,128,255)" points="149.1306,366.2833 159.1319,371.4135 182.2908,358.5876 175.2012,353.3042" stroke-width="0.5" stroke="white" /><polygon fill="rgb(128,128,255)" points="429.5648,262.0540 424.6358,262.6664 419.8384,266.3938 424.5105,265.7334" stroke-width="0.5" stroke="white" /><polygon fill="rgb(62,235,111)" points="254.1739,163.0501 247.9907,168.9330 322.5871,319.3330 334.1919,310.8989" stroke-width="0.5" stroke="white" /><polygon fill="rgb(27,66,175)" points="461.5816,96.9224 522.6526,122.9814 521.8151,108.7126 456.4421,83.2338" stroke-width="0.5" stroke="white" /><polygon fill="rgb(137,253,111)" points="284.7674,145.1156 276.7489,148.4273 373.6043,285.8875 386.4974,278.7795" stroke-width="0.5" stroke="white" /><polygon fill="rgb(246,99,162)" points="163.8441,256.4481 172.1448,344.7964 175.2012,353.3042 166.6704,267.5488" stroke-width="0.5" stroke="white" /><polygon fill="rgb(79,244,111)" points="261.1863,157.5473 254.1739,163.0501 334.1919,310.8989 346.9055,302.2794" stroke-width="0.5" stroke="white" /><polygon fill="rgb(118,253,111)" points="276.7489,148.4273 268.7977,152.6166 360.2254,293.8261 373.6043,285.8875" stroke-width="0.5" stroke="white" /><polygon fill="rgb(98,250,111)" points="268.7977,152.6166 261.1863,157.5473 346.9055,302.2794 360.2254,293.8261" stroke-width="0.5" stroke="white" /><polygon fill="rgb(12,175,103)" points="194.5643,219.4523 192.7432,230.2036 219.9984,345.1098 223.8869,335.8973" stroke-width="0.5" stroke="white" /><polygon fill="rgb(128,128,255)" points="298.0511,340.5328 293.9296,345.5353 299.4106,342.7407 303.3379,338.0702" stroke-width="0.5" stroke="white" /><polygon fill="rgb(128,128,255)" points="508.6437,148.4337 506.8142,137.8159 483.4896,156.4629 486.5433,164.5215" stroke-width="0.5" stroke="white" /><polygon fill="rgb(35,48,162)" points="409.0630,111.3111 483.4896,156.4629 475.5466,150.8640 399.0572,104.6358" stroke-width="0.5" stroke="white" /><polygon fill="rgb(128,128,255)" points="219.9984,345.1098 220.0414,351.7984 232.0041,345.6265 232.5268,339.2999" stroke-width="0.5" stroke="white" /><polygon fill="rgb(128,128,255)" points="424.6358,262.6664 417.7256,264.6392 413.3707,268.2975 419.8384,266.3938" stroke-width="0.5" stroke="white" /><polygon fill="rgb(128,128,255)" points="74.7057,388.2777 94.9397,392.9660 131.2770,373.0893 117.5557,367.4428" stroke-width="0.5" stroke="white" /><polygon fill="rgb(208,222,103)" points="363.4384,119.9467 352.1372,117.5712 444.1456,195.4624 455.4243,195.1094" stroke-width="0.5" stroke="white" /><polygon fill="rgb(128,128,255)" points="462.6420,197.3348 455.4243,195.1094 444.8659,204.0397 451.8704,205.6588" stroke-width="0.5" stroke="white" /><polygon fill="rgb(128,128,255)" points="304.2685,334.3930 298.0511,340.5328 303.3379,338.0702 309.1634,332.3792" stroke-width="0.5" stroke="white" /><polygon fill="rgb(128,128,255)" points="417.7256,264.6392 408.9183,268.0124 405.1975,271.4706 413.3707,268.2975" stroke-width="0.5" stroke="white" /><polygon fill="rgb(21,193,103)" points="199.4795,207.3239 194.5643,219.4523 223.8869,335.8973 232.1484,324.1684" stroke-width="0.5" stroke="white" /><polygon fill="rgb(128,128,255)" points="557.5284,97.2460 560.2216,77.3283 521.8151,108.7126 522.6526,122.9814" stroke-width="0.5" stroke="white" /><polygon fill="rgb(242,100,175)" points="115.0756,285.2758 108.3207,357.3438 117.5557,367.4428 122.2817,298.5682" stroke-width="0.5" stroke="white" /><polygon fill="rgb(128,128,255)" points="312.5098,327.2562 304.2685,334.3930 309.1634,332.3792 316.8090,325.8010" stroke-width="0.5" stroke="white" /><polygon fill="rgb(193,234,103)" points="352.1372,117.5712 338.3180,117.4733 428.6938,198.7687 444.1456,195.4624" stroke-width="0.5" stroke="white" /><polygon fill="rgb(128,128,255)" points="143.5087,357.3388 149.1306,366.2833 175.2012,353.3042 172.1448,344.7964" stroke-width="0.5" stroke="white" /><polygon fill="rgb(128,128,255)" points="408.9183,268.0124 398.4066,272.7601 395.5030,275.8812 405.1975,271.4706" stroke-width="0.5" stroke="white" /><polygon fill="rgb(128,128,255)" points="223.8869,335.8973 219.9984,345.1098 232.5268,339.2999 236.5802,330.7653" stroke-width="0.5" stroke="white" /><polygon fill="rgb(38,51,175)" points="456.4421,83.2338 521.8151,108.7126 514.5663,96.9081 445.7806,71.7722" stroke-width="0.5" stroke="white" /><polygon fill="rgb(128,128,255)" points="322.5871,319.3330 312.5098,327.2562 316.8090,325.8010 326.0957,318.5288" stroke-width="0.5" stroke="white" /><polygon fill="rgb(128,128,255)" points="398.4066,272.7601 386.4974,278.7795 384.5690,281.4307 395.5030,275.8812" stroke-width="0.5" stroke="white" /><polygon fill="rgb(128,128,255)" points="455.4243,195.1094 444.1456,195.4624 434.2885,204.7470 444.8659,204.0397" stroke-width="0.5" stroke="white" /><polygon fill="rgb(128,128,255)" points="506.8142,137.8159 499.3067,129.7786 475.5466,150.8640 483.4896,156.4629" stroke-width="0.5" stroke="white" /><polygon fill="rgb(33,208,103)" points="207.5971,194.1748 199.4795,207.3239 232.1484,324.1684 245.0108,310.1231" stroke-width="0.5" stroke="white" /><polygon fill="rgb(128,128,255)" points="334.1919,310.8989 322.5871,319.3330 326.0957,318.5288 336.7418,310.8103" stroke-width="0.5" stroke="white" /><polygon fill="rgb(128,128,255)" points="386.4974,278.7795 373.6043,285.8875 372.7679,287.9515 384.5690,281.4307" stroke-width="0.5" stroke="white" /><polygon fill="rgb(15,174,93)" points="137.6869,249.2177 137.9288,265.0978 143.5087,357.3388 143.6278,344.0382" stroke-width="0.5" stroke="white" /><polygon fill="rgb(175,243,103)" points="338.3180,117.4733 322.3136,119.8749 409.2521,205.2705 428.6938,198.7687" stroke-width="0.5" stroke="white" /><polygon fill="rgb(128,128,255)" points="346.9055,302.2794 334.1919,310.8989 336.7418,310.8103 348.3722,302.9348" stroke-width="0.5" stroke="white" /><polygon fill="rgb(128,128,255)" points="373.6043,285.8875 360.2254,293.8261 360.5418,295.2127 372.7679,287.9515" stroke-width="0.5" stroke="white" /><polygon fill="rgb(128,128,255)" points="360.2254,293.8261 346.9055,302.2794 348.3722,302.9348 360.5418,295.2127" stroke-width="0.5" stroke="white" /><polygon fill="rgb(128,128,255)" points="232.1484,324.1684 223.8869,335.8973 236.5802,330.7653 244.4864,320.0690" stroke-width="0.5" stroke="white" /><polygon fill="rgb(128,128,255)" points="58.7713,378.2324 74.7057,388.2777 117.5557,367.4428 108.3207,357.3438" stroke-width="0.5" stroke="white" /><polygon fill="rgb(207,220,93)" points="417.7737,84.3284 401.9477,78.2326 485.0660,125.3614 499.3067,129.7786" stroke-width="0.5" stroke="white" /><polygon fill="rgb(47,222,103)" points="218.8403,180.4854 207.5971,194.1748 245.0108,310.1231 262.3799,294.1968" stroke-width="0.5" stroke="white" /><polygon fill="rgb(128,128,255)" points="444.1456,195.4624 428.6938,198.7687 420.1041,208.0654 434.2885,204.7470" stroke-width="0.5" stroke="white" /><polygon fill="rgb(157,249,103)" points="322.3136,119.8749 304.6502,124.8714 386.3755,214.9977 409.2521,205.2705" stroke-width="0.5" stroke="white" /><polygon fill="rgb(236,82,175)" points="113.1535,267.7825 105.3320,342.0067 108.3207,357.3438 115.0756,285.2758" stroke-width="0.5" stroke="white" /><polygon fill="rgb(128,128,255)" points="143.6278,344.0382 143.5087,357.3388 172.1448,344.7964 174.1085,332.7471" stroke-width="0.5" stroke="white" /><polygon fill="rgb(62,234,103)" points="232.9143,166.8367 218.8403,180.4854 262.3799,294.1968 283.7562,277.0694" stroke-width="0.5" stroke="white" /><polygon fill="rgb(128,128,255)" points="560.2216,77.3283 555.5475,59.3972 514.5663,96.9081 521.8151,108.7126" stroke-width="0.5" stroke="white" /><polygon fill="rgb(137,252,103)" points="304.6502,124.8714 286.0306,132.3957 361.0152,227.7044 386.3755,214.9977" stroke-width="0.5" stroke="white" /><polygon fill="rgb(128,128,255)" points="245.0108,310.1231 232.1484,324.1684 244.4864,320.0690 256.3765,307.4191" stroke-width="0.5" stroke="white" /><polygon fill="rgb(128,128,255)" points="499.3067,129.7786 485.0660,125.3614 462.0414,148.4958 475.5466,150.8640" stroke-width="0.5" stroke="white" /><polygon fill="rgb(51,38,175)" points="445.7806,71.7722 514.5663,96.9081 499.4298,88.9045 428.8178,63.5943" stroke-width="0.5" stroke="white" /><polygon fill="rgb(80,243,103)" points="249.3006,153.8651 232.9143,166.8367 283.7562,277.0694 308.2129,259.6231" stroke-width="0.5" stroke="white" /><polygon fill="rgb(118,252,103)" points="286.0306,132.3957 267.2865,142.2001 334.4634,242.8471 361.0152,227.7044" stroke-width="0.5" stroke="white" /><polygon fill="rgb(23,191,93)" points="142.9200,230.1478 137.6869,249.2177 143.6278,344.0382 150.8930,326.0311" stroke-width="0.5" stroke="white" /><polygon fill="rgb(98,249,103)" points="267.2865,142.2001 249.3006,153.8651 308.2129,259.6231 334.4634,242.8471" stroke-width="0.5" stroke="white" /><polygon fill="rgb(128,128,255)" points="428.6938,198.7687 409.2521,205.2705 402.5281,214.1592 420.1041,208.0654" stroke-width="0.5" stroke="white" /><polygon fill="rgb(191,232,93)" points="401.9477,78.2326 380.8580,75.9456 463.2668,125.6909 485.0660,125.3614" stroke-width="0.5" stroke="white" /><polygon fill="rgb(128,128,255)" points="262.3799,294.1968 245.0108,310.1231 256.3765,307.4191 272.1107,293.2134" stroke-width="0.5" stroke="white" /><polygon fill="rgb(128,128,255)" points="409.2521,205.2705 386.3755,214.9977 382.0765,223.0135 402.5281,214.1592" stroke-width="0.5" stroke="white" /><polygon fill="rgb(128,128,255)" points="150.8930,326.0311 143.6278,344.0382 174.1085,332.7471 182.0266,317.0234" stroke-width="0.5" stroke="white" /><polygon fill="rgb(128,128,255)" points="49.5784,361.4633 58.7713,378.2324 108.3207,357.3438 105.3320,342.0067" stroke-width="0.5" stroke="white" /><polygon fill="rgb(128,128,255)" points="283.7562,277.0694 262.3799,294.1968 272.1107,293.2134 291.2232,278.0390" stroke-width="0.5" stroke="white" /><polygon fill="rgb(128,128,255)" points="386.3755,214.9977 361.0152,227.7044 359.5751,234.3912 382.0765,223.0135" stroke-width="0.5" stroke="white" /><polygon fill="rgb(35,207,93)" points="154.3039,208.3376 142.9200,230.1478 150.8930,326.0311 166.5017,303.3456" stroke-width="0.5" stroke="white" /><polygon fill="rgb(128,128,255)" points="485.0660,125.3614 463.2668,125.6909 442.5446,150.1306 462.0414,148.4958" stroke-width="0.5" stroke="white" /><polygon fill="rgb(128,128,255)" points="308.2129,259.6231 283.7562,277.0694 291.2232,278.0390 312.9147,262.6361" stroke-width="0.5" stroke="white" /><polygon fill="rgb(128,128,255)" points="361.0152,227.7044 334.4634,242.8471 336.1095,247.8221 359.5751,234.3912" stroke-width="0.5" stroke="white" /><polygon fill="rgb(128,128,255)" points="334.4634,242.8471 308.2129,259.6231 312.9147,262.6361 336.1095,247.8221" stroke-width="0.5" stroke="white" /><polygon fill="rgb(174,240,93)" points="380.8580,75.9456 354.7658,78.2302 433.6182,131.8059 463.2668,125.6909" stroke-width="0.5" stroke="white" /><polygon fill="rgb(128,128,255)" points="555.5475,59.3972 541.1120,45.2458 499.4298,88.9045 514.5663,96.9081" stroke-width="0.5" stroke="white" /><polygon fill="rgb(128,128,255)" points="166.5017,303.3456 150.8930,326.0311 182.0266,317.0234 196.5943,297.7956" stroke-width="0.5" stroke="white" /><polygon fill="rgb(48,220,93)" points="172.1165,184.6258 154.3039,208.3376 166.5017,303.3456 191.0791,276.5894" stroke-width="0.5" stroke="white" /><polygon fill="rgb(128,128,255)" points="463.2668,125.6909 433.6182,131.8059 417.0675,156.4114 442.5446,150.1306" stroke-width="0.5" stroke="white" /><polygon fill="rgb(156,246,93)" points="354.7658,78.2302 324.4906,85.6061 396.7036,144.3895 433.6182,131.8059" stroke-width="0.5" stroke="white" /><polygon fill="rgb(128,128,255)" points="50.2111,336.6688 49.5784,361.4633 105.3320,342.0067 110.5572,320.8358" stroke-width="0.5" stroke="white" /><polygon fill="rgb(64,232,93)" points="196.0482,160.2372 172.1165,184.6258 191.0791,276.5894 224.2779,247.0837" stroke-width="0.5" stroke="white" /><polygon fill="rgb(128,128,255)" points="191.0791,276.5894 166.5017,303.3456 196.5943,297.7956 218.0348,275.6481" stroke-width="0.5" stroke="white" /><polygon fill="rgb(137,249,93)" points="324.4906,85.6061 291.4561,98.1808 354.2275,163.4663 396.7036,144.3895" stroke-width="0.5" stroke="white" /><polygon fill="rgb(128,128,255)" points="433.6182,131.8059 396.7036,144.3895 386.2551,167.6787 417.0675,156.4114" stroke-width="0.5" stroke="white" /><polygon fill="rgb(128,128,255)" points="541.1120,45.2458 514.4235,37.2688 475.1086,86.2755 499.4298,88.9045" stroke-width="0.5" stroke="white" /><polygon fill="rgb(81,240,93)" points="225.0936,136.6782 196.0482,160.2372 224.2779,247.0837 264.5088,216.8214" stroke-width="0.5" stroke="white" /><polygon fill="rgb(118,249,93)" points="291.4561,98.1808 257.5941,115.5287 308.9942,188.1839 354.2275,163.4663" stroke-width="0.5" stroke="white" /><polygon fill="rgb(99,246,93)" points="257.5941,115.5287 225.0936,136.6782 264.5088,216.8214 308.9942,188.1839" stroke-width="0.5" stroke="white" /><polygon fill="rgb(128,128,255)" points="224.2779,247.0837 191.0791,276.5894 218.0348,275.6481 245.8748,251.6324" stroke-width="0.5" stroke="white" /><polygon fill="rgb(128,128,255)" points="396.7036,144.3895 354.2275,163.4663 351.4950,183.7989 386.2551,167.6787" stroke-width="0.5" stroke="white" /><polygon fill="rgb(38,204,80)" points="77.6086,220.9367 65.6044,253.5882 50.2111,336.6688 64.0785,303.0410" stroke-width="0.5" stroke="white" /><polygon fill="rgb(128,128,255)" points="264.5088,216.8214 224.2779,247.0837 245.8748,251.6324 278.8255,227.2099" stroke-width="0.5" stroke="white" /><polygon fill="rgb(128,128,255)" points="354.2275,163.4663 308.9942,188.1839 314.8571,204.0612 351.4950,183.7989" stroke-width="0.5" stroke="white" /><polygon fill="rgb(128,128,255)" points="64.0785,303.0410 50.2111,336.6688 110.5572,320.8358 125.8696,293.6951" stroke-width="0.5" stroke="white" /><polygon fill="rgb(128,128,255)" points="308.9942,188.1839 264.5088,216.8214 278.8255,227.2099 314.8571,204.0612" stroke-width="0.5" stroke="white" /><polygon fill="rgb(173,236,80)" points="432.9427,14.8687 395.2369,13.9936 473.5411,38.2756 514.4235,37.2688" stroke-width="0.5" stroke="white" /><polygon fill="rgb(128,128,255)" points="514.4235,37.2688 473.5411,38.2756 440.9110,90.6273 475.1086,86.2755" stroke-width="0.5" stroke="white" /><polygon fill="rgb(51,217,80)" points="101.4747,183.3906 77.6086,220.9367 64.0785,303.0410 94.1156,260.9144" stroke-width="0.5" stroke="white" /><polygon fill="rgb(128,128,255)" points="94.1156,260.9144 64.0785,303.0410 125.8696,293.6951 152.5317,261.2329" stroke-width="0.5" stroke="white" /><polygon fill="rgb(155,242,80)" points="395.2369,13.9936 348.3625,22.1739 418.1203,50.9157 473.5411,38.2756" stroke-width="0.5" stroke="white" /><polygon fill="rgb(128,128,255)" points="473.5411,38.2756 418.1203,50.9157 397.2878,103.2202 440.9110,90.6273" stroke-width="0.5" stroke="white" /><polygon fill="rgb(66,228,80)" points="137.5529,143.1670 101.4747,183.3906 94.1156,260.9144 141.4781,212.4474" stroke-width="0.5" stroke="white" /><polygon fill="rgb(137,245,80)" points="348.3625,22.1739 294.7131,40.3675 350.5672,76.6820 418.1203,50.9157" stroke-width="0.5" stroke="white" /><polygon fill="rgb(128,128,255)" points="141.4781,212.4474 94.1156,260.9144 152.5317,261.2329 190.5442,225.1357" stroke-width="0.5" stroke="white" /><polygon fill="rgb(128,128,255)" points="418.1203,50.9157 350.5672,76.6820 346.2895,124.4682 397.2878,103.2202" stroke-width="0.5" stroke="white" /><polygon fill="rgb(82,236,80)" points="184.3418,103.5168 137.5529,143.1670 141.4781,212.4474 204.1730,161.8747" stroke-width="0.5" stroke="white" /><polygon fill="rgb(118,245,80)" points="294.7131,40.3675 238.3516,68.1562 276.5668,114.8207 350.5672,76.6820" stroke-width="0.5" stroke="white" /><polygon fill="rgb(100,242,80)" points="238.3516,68.1562 184.3418,103.5168 204.1730,161.8747 276.5668,114.8207" stroke-width="0.5" stroke="white" /><polygon fill="rgb(128,128,255)" points="204.1730,161.8747 141.4781,212.4474 190.5442,225.1357 238.1175,188.1198" stroke-width="0.5" stroke="white" /><polygon fill="rgb(128,128,255)" points="350.5672,76.6820 276.5668,114.8207 291.6303,153.5090 346.2895,124.4682" stroke-width="0.5" stroke="white" /><polygon fill="rgb(128,128,255)" points="276.5668,114.8207 204.1730,161.8747 238.1175,188.1198 291.6303,153.5090" stroke-width="0.5" stroke="white" /><g fill="black" font-family="Arial" font-size="12" text-anchor="end"><circle cx="363.8861" cy="309.8669" r="3" /><polyline fill="none" points="363.8861,309.8669 389.9804,351.4092 539.9804,351.4092" stroke="black" /><text x="539.9804" y="346.4092">Rendered with</text><text font-weight="bold" x="539.9804" y="363.4092">thi.ng/geom-svg</text></g></svg>