<?xml version="1.0"?>
<svg height="480" version="1.1" width="640" xmlns:xlink="http://www.w3.org/1999/xlink" xmlns="http://www.w3.org/2000/svg"><g stroke-width="0.25" stroke="blue"><polygon fill="#383852" points="153.41,220.85 151.98,240.00 152.23,240.00" /><polygon fill="#2a2a43" points="152.23,240.00 151.98,240.00 153.41,259.15" /><polygon fill="#65e3b9" points="310.00,73.07 304.40,73.47 285.20,75.66" /><polygon fill="#23233c" points="285.20,404.34 304.40,406.53 310.00,406.93" /><polygon fill="#673e8a" points="475.90,299.68 474.24,305.57 479.85,287.27" /><polygon fill="#8e77b6" points="479.85,192.73 474.24,174.43 475.90,180.32" /><polygon fill="#46b296" points="266.07,81.32 266.40,80.52 248.62,88.02" /><polygon fill="#1a1a33" points="248.62,391.98 266.40,399.48 266.07,398.68" /><polygon fill="#1d1d36" points="266.07,398.68 266.40,399.48 285.20,404.34" /><polygon fill="#53cca9" points="285.20,75.66 266.40,80.52 266.07,81.32" /><polygon fill="#a7cfe4" points="442.92,125.19 428.52,112.37 422.96,108.45" /><polygon fill="#614684" points="422.96,371.55 428.52,367.63 442.92,354.81" /><polygon fill="#3b3b54" points="153.41,220.85 152.23,240.00 153.81,217.99" /><polygon fill="#292942" points="152.23,240.00 153.41,259.15 153.81,262.01" /><polygon fill="#191933" points="175.64,323.11 169.91,311.34 166.02,304.84" /><polygon fill="#5e5e78" points="169.91,168.66 175.64,156.89 166.02,175.16" /><polygon fill="#998cc8" points="475.90,180.32 474.24,174.43 466.15,156.70" /><polygon fill="#643b89" points="466.15,323.30 474.24,305.57 475.90,299.68" /><polygon fill="#459d8a" points="248.62,88.02 226.54,101.22 245.61,89.89" /><polygon fill="#191933" points="226.54,378.78 248.62,391.98 245.61,390.11" /><polygon fill="#537881" points="195.03,129.78 203.63,121.54 209.04,115.05" /><polygon fill="#191933" points="203.63,358.46 195.03,350.22 209.04,364.95" /><polygon fill="#8f78b7" points="479.85,192.73 475.90,180.32 482.70,202.24" /><polygon fill="#633c86" points="475.90,299.68 479.85,287.27 482.70,277.76" /><polygon fill="#64e3ba" points="310.00,73.07 285.20,75.66 287.64,75.70" /><polygon fill="#22223c" points="285.20,404.34 310.00,406.93 287.64,404.30" /><polygon fill="#47b296" points="266.07,81.32 248.62,88.02 245.61,89.89" /><polygon fill="#1a1a33" points="248.62,391.98 266.07,398.68 245.61,390.11" /><polygon fill="#644289" points="442.92,354.81 455.63,339.92 454.33,339.41" /><polygon fill="#a5bce2" points="454.33,140.59 455.63,140.08 442.92,125.19" /><polygon fill="#54cea9" points="285.20,75.66 266.07,81.32 287.64,75.70" /><polygon fill="#1d1d36" points="266.07,398.68 285.20,404.34 287.64,404.30" /><polygon fill="#68408f" points="454.33,339.41 455.63,339.92 466.15,323.30" /><polygon fill="#a1a5d9" points="466.15,156.70 455.63,140.08 454.33,140.59" /><polygon fill="#62627b" points="169.91,168.66 183.50,142.59 175.64,156.89" /><polygon fill="#191933" points="175.64,323.11 183.50,337.41 169.91,311.34" /><polygon fill="#4f4f69" points="158.46,196.29 169.91,168.66 166.02,175.16" /><polygon fill="#1a1a33" points="169.91,311.34 158.46,283.71 166.02,304.84" /><polygon fill="#41415b" points="353.66,403.53 339.79,404.27 332.82,406.64" /><polygon fill="#88fddf" points="339.79,75.73 353.66,76.47 332.82,73.36" /><polygon fill="#191933" points="203.63,358.46 183.50,337.41 195.03,350.22" /><polygon fill="#51767f" points="195.03,129.78 183.50,142.59 203.63,121.54" /><polygon fill="#428280" points="203.63,121.54 226.54,101.22 209.04,115.05" /><polygon fill="#191933" points="226.54,378.78 203.63,358.46 209.04,364.95" /><polygon fill="#5f4481" points="422.96,371.55 442.92,354.81 439.75,356.55" /><polygon fill="#a7cfe5" points="442.92,125.19 422.96,108.45 439.75,123.45" /><polygon fill="#625481" points="395.80,386.75 385.89,393.45 404.28,384.29" /><polygon fill="#9ff3ec" points="385.89,86.55 395.80,93.25 404.28,95.71" /><polygon fill="#9a8eca" points="475.90,180.32 466.15,156.70 466.43,159.65" /><polygon fill="#653c8b" points="466.15,323.30 475.90,299.68 466.43,320.35" /><polygon fill="#a7bce3" points="454.33,140.59 442.92,125.19 439.75,123.45" /><polygon fill="#66448c" points="442.92,354.81 454.33,339.41 439.75,356.55" /><polygon fill="#633d89" points="454.33,339.41 466.15,323.30 466.43,320.35" /><polygon fill="#a2a5d9" points="466.15,156.70 454.33,140.59 466.43,159.65" /><polygon fill="#774fa1" points="486.24,257.04 482.01,269.60 482.70,277.76" /><polygon fill="#8869b5" points="482.01,210.40 486.24,222.96 482.70,202.24" /><polygon fill="#373751" points="339.79,404.27 310.00,406.93 332.82,406.64" /><polygon fill="#77f7d7" points="310.00,73.07 339.79,75.73 332.82,73.36" /><polygon fill="#3a3a54" points="156.12,216.29 158.46,196.29 153.81,217.99" /><polygon fill="#1c1c36" points="158.46,283.71 156.12,263.71 153.81,262.01" /><polygon fill="#88fdde" points="339.79,75.73 369.37,80.25 353.66,76.47" /><polygon fill="#3f3f59" points="353.66,403.53 369.37,399.75 339.79,404.27" /><polygon fill="#645684" points="395.80,386.75 369.37,399.75 385.89,393.45" /><polygon fill="#a1f4ee" points="385.89,86.55 369.37,80.25 395.80,93.25" /><polygon fill="#2d2d47" points="152.23,240.00 156.12,216.29 153.81,217.99" /><polygon fill="#21213b" points="156.12,263.71 152.23,240.00 153.81,262.01" /><polygon fill="#7a629f" points="422.96,371.55 395.80,386.75 404.28,384.29" /><polygon fill="#a5e8f5" points="395.80,93.25 422.96,108.45 404.28,95.71" /><polygon fill="#191933" points="244.27,386.70 226.54,378.78 245.61,390.11" /><polygon fill="#3c998b" points="226.54,101.22 244.27,93.30 245.61,89.89" /><polygon fill="#1a1a33" points="169.91,311.34 161.30,287.48 158.46,283.71" /><polygon fill="#4b4b65" points="158.46,196.29 161.30,192.52 169.91,168.66" /><polygon fill="#744c9d" points="486.24,257.04 486.78,240.00 482.01,269.60" /><polygon fill="#8a6bb7" points="482.01,210.40 486.78,240.00 486.24,222.96" /><polygon fill="#292943" points="310.00,406.93 289.55,401.98 287.64,404.30" /><polygon fill="#64e7c8" points="289.55,78.02 310.00,73.07 287.64,75.70" /><polygon fill="#72489f" points="482.01,269.60 475.90,299.68 482.70,277.76" /><polygon fill="#947ec9" points="475.90,180.32 482.01,210.40 482.70,202.24" /><polygon fill="#1a1a34" points="266.07,398.68 244.27,386.70 245.61,390.11" /><polygon fill="#43b29d" points="244.27,93.30 266.07,81.32 245.61,89.89" /><polygon fill="#191933" points="226.54,378.78 223.39,374.18 203.63,358.46" /><polygon fill="#418581" points="203.63,121.54 223.39,105.82 226.54,101.22" /><polygon fill="#1c1c35" points="158.46,283.71 161.30,287.48 156.12,263.71" /><polygon fill="#3d3d56" points="156.12,216.29 161.30,192.52 158.46,196.29" /><polygon fill="#52d1b5" points="266.07,81.32 289.55,78.02 287.64,75.70" /><polygon fill="#202039" points="289.55,401.98 266.07,398.68 287.64,404.30" /><polygon fill="#3d978a" points="226.54,101.22 223.39,105.82 244.27,93.30" /><polygon fill="#191933" points="244.27,386.70 223.39,374.18 226.54,378.78" /><polygon fill="#77f7d7" points="310.00,73.07 314.04,75.26 339.79,75.73" /><polygon fill="#36364f" points="339.79,404.27 314.04,404.74 310.00,406.93" /><polygon fill="#2b2b45" points="152.23,240.00 154.40,240.00 156.12,216.29" /><polygon fill="#22223c" points="156.12,263.71 154.40,240.00 152.23,240.00" /><polygon fill="#7c5ea6" points="435.57,356.12 422.96,371.55 439.75,356.55" /><polygon fill="#a7d7f6" points="422.96,108.45 435.57,123.88 439.75,123.45" /><polygon fill="#9d94da" points="464.30,162.87 475.90,180.32 466.43,159.65" /><polygon fill="#754aa4" points="475.90,299.68 464.30,317.13 466.43,320.35" /><polygon fill="#2a2a43" points="310.00,406.93 314.04,404.74 289.55,401.98" /><polygon fill="#65e9ca" points="289.55,78.02 314.04,75.26 310.00,73.07" /><polygon fill="#a7c3f2" points="435.57,123.88 454.33,140.59 439.75,123.45" /><polygon fill="#7f5aac" points="454.33,339.41 435.57,356.12 439.75,356.55" /><polygon fill="#a5e8f5" points="395.80,93.25 417.05,107.54 422.96,108.45" /><polygon fill="#765f9a" points="422.96,371.55 417.05,372.46 395.80,386.75" /><polygon fill="#754ca3" points="464.30,317.13 454.33,339.41 466.43,320.35" /><polygon fill="#a3abe8" points="454.33,140.59 464.30,162.87 466.43,159.65" /><polygon fill="#1a1a34" points="266.07,398.68 266.31,395.96 244.27,386.70" /><polygon fill="#43b59f" points="244.27,93.30 266.31,84.04 266.07,81.32" /><polygon fill="#191933" points="169.91,311.34 183.50,337.41 187.74,333.63" /><polygon fill="#394a5f" points="187.74,146.37 183.50,142.59 169.91,168.66" /><polygon fill="#52d0b4" points="266.07,81.32 266.31,84.04 289.55,78.02" /><polygon fill="#1f1f38" points="289.55,401.98 266.31,395.96 266.07,398.68" /><polygon fill="#37636f" points="203.63,121.54 183.50,142.59 187.74,146.37" /><polygon fill="#191933" points="187.74,333.63 183.50,337.41 203.63,358.46" /><polygon fill="#957fcb" points="475.90,180.32 474.51,185.57 482.01,210.40" /><polygon fill="#7349a1" points="482.01,269.60 474.51,294.43 475.90,299.68" /><polygon fill="#a8d9f7" points="422.96,108.45 417.05,107.54 435.57,123.88" /><polygon fill="#8163aa" points="435.57,356.12 417.05,372.46 422.96,371.55" /><polygon fill="#71479f" points="475.90,299.68 474.51,294.43 464.30,317.13" /><polygon fill="#9e95db" points="464.30,162.87 474.51,185.57 475.90,180.32" /><polygon fill="#33334c" points="169.91,168.66 161.30,192.52 166.00,192.08" /><polygon fill="#191933" points="166.00,287.92 161.30,287.48 169.91,311.34" /><polygon fill="#726895" points="339.79,404.27 369.37,399.75 366.34,393.46" /><polygon fill="#86fdf5" points="366.34,86.54 369.37,80.25 339.79,75.73" /><polygon fill="#a7c3f3" points="435.57,123.88 451.31,142.32 454.33,140.59" /><polygon fill="#7a56a6" points="454.33,339.41 451.31,337.68 435.57,356.12" /><polygon fill="#7950a7" points="464.30,317.13 451.31,337.68 454.33,339.41" /><polygon fill="#a4adea" points="454.33,140.59 451.31,142.32 464.30,162.87" /><polygon fill="#9683bf" points="366.34,393.46 369.37,399.75 395.80,386.75" /><polygon fill="#97f8ff" points="395.80,93.25 369.37,80.25 366.34,86.54" /><polygon fill="#347d7e" points="223.97,111.17 223.39,105.82 203.63,121.54" /><polygon fill="#191933" points="203.63,358.46 223.39,374.18 223.97,368.83" /><polygon fill="#1a1a33" points="156.12,263.71 161.30,287.48 166.00,287.92" /><polygon fill="#2c2c46" points="166.00,192.08 161.30,192.52 156.12,216.29" /><polygon fill="#1d1d37" points="158.64,240.00 154.40,240.00 156.12,263.71" /><polygon fill="#23233c" points="156.12,216.29 154.40,240.00 158.64,240.00" /><polygon fill="#36958e" points="244.27,93.30 223.39,105.82 223.97,111.17" /><polygon fill="#191933" points="223.97,368.83 223.39,374.18 244.27,386.70" /><polygon fill="#845fbf" points="482.01,269.60 486.78,240.00 479.06,240.00" /><polygon fill="#8f72cf" points="479.06,240.00 486.78,240.00 482.01,210.40" /><polygon fill="#191933" points="169.91,311.34 187.74,333.63 175.05,311.65" /><polygon fill="#37495e" points="187.74,146.37 169.91,168.66 175.05,168.35" /><polygon fill="#4d4a6b" points="315.43,399.63 314.04,404.74 339.79,404.27" /><polygon fill="#75f6e7" points="339.79,75.73 314.04,75.26 315.43,80.37" /><polygon fill="#191933" points="187.74,333.63 203.63,358.46 204.42,352.68" /><polygon fill="#366570" points="203.63,121.54 187.74,146.37 204.42,127.32" /><polygon fill="#33334d" points="169.91,168.66 166.00,192.08 175.05,168.35" /><polygon fill="#191933" points="166.00,287.92 169.91,311.34 175.05,311.65" /><polygon fill="#34344d" points="289.55,401.98 314.04,404.74 315.43,399.63" /><polygon fill="#64e9d6" points="315.43,80.37 314.04,75.26 289.55,78.02" /><polygon fill="#191933" points="203.63,358.46 223.97,368.83 204.42,352.68" /><polygon fill="#337b7d" points="223.97,111.17 203.63,121.54 204.42,127.32" /><polygon fill="#1b1b35" points="244.27,386.70 266.31,395.96 267.18,391.23" /><polygon fill="#40b5a6" points="267.18,88.77 266.31,84.04 244.27,93.30" /><polygon fill="#9fecff" points="411.53,110.52 417.05,107.54 395.80,93.25" /><polygon fill="#9f86cc" points="395.80,386.75 417.05,372.46 411.53,369.48" /><polygon fill="#22223b" points="267.18,391.23 266.31,395.96 289.55,401.98" /><polygon fill="#50d0be" points="289.55,78.02 266.31,84.04 267.18,88.77" /><polygon fill="#1a1a34" points="156.12,263.71 166.00,287.92 160.50,264.00" /><polygon fill="#2a2a43" points="166.00,192.08 156.12,216.29 160.50,216.00" /><polygon fill="#8259bc" points="469.46,290.77 474.51,294.43 482.01,269.60" /><polygon fill="#9784dc" points="482.01,210.40 474.51,185.57 469.46,189.23" /><polygon fill="#1d1d36" points="158.64,240.00 156.12,263.71 160.50,264.00" /><polygon fill="#23233d" points="156.12,216.29 158.64,240.00 160.50,216.00" /><polygon fill="#6d648f" points="339.79,404.27 366.34,393.46 341.15,398.62" /><polygon fill="#87fdf5" points="366.34,86.54 339.79,75.73 341.15,81.38" /><polygon fill="#a4ddff" points="435.57,123.88 417.05,107.54 411.53,110.52" /><polygon fill="#a686d7" points="411.53,369.48 417.05,372.46 435.57,356.12" /><polygon fill="#76f7e8" points="339.79,75.73 315.43,80.37 341.15,81.38" /><polygon fill="#4f4c6d" points="315.43,399.63 339.79,404.27 341.15,398.62" /><polygon fill="#97f9ff" points="395.80,93.25 366.34,86.54 389.90,96.65" /><polygon fill="#8d7cb4" points="366.34,393.46 395.80,386.75 389.90,383.35" /><polygon fill="#191933" points="223.97,368.83 244.27,386.70 244.91,381.74" /><polygon fill="#36978f" points="244.27,93.30 223.97,111.17 244.91,98.26" /><polygon fill="#8158ba" points="464.30,317.13 474.51,294.43 469.46,290.77" /><polygon fill="#9e99ea" points="469.46,189.23 474.51,185.57 464.30,162.87" /><polygon fill="#40b3a5" points="267.18,88.77 244.27,93.30 244.91,98.26" /><polygon fill="#1b1b34" points="244.27,386.70 267.18,391.23 244.91,381.74" /><polygon fill="#9671ca" points="435.57,356.12 451.31,337.68 446.50,334.68" /><polygon fill="#a6c7ff" points="446.50,145.32 451.31,142.32 435.57,123.88" /><polygon fill="#a0eeff" points="411.53,110.52 395.80,93.25 389.90,96.65" /><polygon fill="#a48bd0" points="395.80,386.75 411.53,369.48 389.90,383.35" /><polygon fill="#8e65c6" points="446.50,334.68 451.31,337.68 464.30,317.13" /><polygon fill="#a4b1f6" points="464.30,162.87 451.31,142.32 446.50,145.32" /><polygon fill="#64e8d5" points="315.43,80.37 289.55,78.02 290.73,82.81" /><polygon fill="#32324b" points="289.55,401.98 315.43,399.63 290.73,397.19" /><polygon fill="#51d3c0" points="289.55,78.02 267.18,88.77 290.73,82.81" /><polygon fill="#23233c" points="267.18,391.23 289.55,401.98 290.73,397.19" /><polygon fill="#8e71cd" points="479.06,240.00 482.01,210.40 476.38,214.24" /><polygon fill="#8660c1" points="482.01,269.60 479.06,240.00 476.38,265.76" /><polygon fill="#7f57b9" points="469.46,290.77 482.01,269.60 476.38,265.76" /><polygon fill="#9885dd" points="482.01,210.40 469.46,189.23 476.38,214.24" /><polygon fill="#a4ddff" points="435.57,123.88 411.53,110.52 430.46,126.75" /><polygon fill="#9e80ce" points="411.53,369.48 435.57,356.12 430.46,353.25" /><polygon fill="#a6c9ff" points="446.50,145.32 435.57,123.88 430.46,126.75" /><polygon fill="#9c77d0" points="435.57,356.12 446.50,334.68 430.46,353.25" /><polygon fill="#855bbe" points="464.30,317.13 469.46,290.77 459.51,313.80" /><polygon fill="#9f99ea" points="469.46,189.23 464.30,162.87 459.51,166.20" /><polygon fill="#191933" points="187.74,333.63 182.15,307.26 175.05,311.65" /><polygon fill="#26475b" points="182.15,172.74 187.74,146.37 175.05,168.35" /><polygon fill="#8961c0" points="446.50,334.68 464.30,317.13 459.51,313.80" /><polygon fill="#a4b1f7" points="464.30,162.87 446.50,145.32 459.51,166.20" /><polygon fill="#191933" points="210.26,346.50 187.74,333.63 204.42,352.68" /><polygon fill="#28606f" points="187.74,146.37 210.26,133.50 204.42,127.32" /><polygon fill="#191933" points="182.15,307.26 166.00,287.92 175.05,311.65" /><polygon fill="#24344b" points="166.00,192.08 182.15,172.74 175.05,168.35" /><polygon fill="#20203a" points="166.96,217.31 166.00,192.08 160.50,216.00" /><polygon fill="#191933" points="166.00,287.92 166.96,262.69 160.50,264.00" /><polygon fill="#2b7880" points="210.26,133.50 223.97,111.17 204.42,127.32" /><polygon fill="#191933" points="223.97,368.83 210.26,346.50 204.42,352.68" /><polygon fill="#1d1d37" points="158.64,240.00 166.96,217.31 160.50,216.00" /><polygon fill="#1a1a34" points="166.96,262.69 158.64,240.00 160.50,264.00" /><polygon fill="#1a1a33" points="247.73,375.28 223.97,368.83 244.91,381.74" /><polygon fill="#329696" points="223.97,111.17 247.73,104.72 244.91,98.26" /><polygon fill="#80f6ff" points="338.58,90.46 366.34,86.54 341.15,81.38" /><polygon fill="#988bc5" points="366.34,393.46 338.58,389.54 341.15,398.62" /><polygon fill="#1c1c36" points="267.18,391.23 247.73,375.28 244.91,381.74" /><polygon fill="#3eb2ae" points="247.73,104.72 267.18,88.77 244.91,98.26" /><polygon fill="#6e6796" points="338.58,389.54 315.43,399.63 341.15,398.62" /><polygon fill="#72f1f4" points="315.43,80.37 338.58,90.46 341.15,81.38" /><polygon fill="#8ef3ff" points="366.34,86.54 385.17,105.09 389.90,96.65" /><polygon fill="#beaaf0" points="385.17,374.91 366.34,393.46 389.90,383.35" /><polygon fill="#413e60" points="315.43,399.63 291.04,389.86 290.73,397.19" /><polygon fill="#61e4df" points="291.04,90.14 315.43,80.37 290.73,82.81" /><polygon fill="#282841" points="291.04,389.86 267.18,391.23 290.73,397.19" /><polygon fill="#4fd0c9" points="267.18,88.77 291.04,90.14 290.73,82.81" /><polygon fill="#254a5d" points="182.15,172.74 194.68,152.03 187.74,146.37" /><polygon fill="#191933" points="187.74,333.63 194.68,327.97 182.15,307.26" /><polygon fill="#191933" points="210.26,346.50 194.68,327.97 187.74,333.63" /><polygon fill="#275f6e" points="187.74,146.37 194.68,152.03 210.26,133.50" /><polygon fill="#d2b8ff" points="411.53,369.48 385.17,374.91 389.90,383.35" /><polygon fill="#97ebff" points="385.17,105.09 411.53,110.52 389.90,96.65" /><polygon fill="#20223b" points="166.96,217.31 172.83,194.80 166.00,192.08" /><polygon fill="#191933" points="166.00,287.92 172.83,285.20 166.96,262.69" /><polygon fill="#22344b" points="166.00,192.08 172.83,194.80 182.15,172.74" /><polygon fill="#191933" points="182.15,307.26 172.83,285.20 166.00,287.92" /><polygon fill="#1a1a34" points="166.96,262.69 164.90,240.00 158.64,240.00" /><polygon fill="#1d1d36" points="158.64,240.00 164.90,240.00 166.96,217.31" /><polygon fill="#9071de" points="479.06,240.00 466.22,264.62 476.38,265.76" /><polygon fill="#927be3" points="466.22,215.38 479.06,240.00 476.38,214.24" /><polygon fill="#2b7a81" points="210.26,133.50 228.20,117.55 223.97,111.17" /><polygon fill="#191933" points="223.97,368.83 228.20,362.45 210.26,346.50" /><polygon fill="#329495" points="223.97,111.17 228.20,117.55 247.73,104.72" /><polygon fill="#191933" points="247.73,375.28 228.20,362.45 223.97,368.83" /><polygon fill="#c8a9ff" points="424.60,347.80 411.53,369.48 430.46,353.25" /><polygon fill="#9eddff" points="411.53,110.52 424.60,132.20 430.46,126.75" /><polygon fill="#988bee" points="469.46,189.23 466.22,215.38 476.38,214.24" /><polygon fill="#8f6cd9" points="466.22,264.62 469.46,290.77 476.38,265.76" /><polygon fill="#bf9bfd" points="446.50,334.68 424.60,347.80 430.46,353.25" /><polygon fill="#a2caff" points="424.60,132.20 446.50,145.32 430.46,126.75" /><polygon fill="#9a73e0" points="469.46,290.77 452.02,310.53 459.51,313.80" /><polygon fill="#9d9df7" points="452.02,169.47 469.46,189.23 459.51,166.20" /><polygon fill="#1d1d36" points="267.18,391.23 268.71,384.56 247.73,375.28" /><polygon fill="#3eb4af" points="247.73,104.72 268.71,95.44 267.18,88.77" /><polygon fill="#a1b3ff" points="446.50,145.32 452.02,169.47 459.51,166.20" /><polygon fill="#a57ee6" points="452.02,310.53 446.50,334.68 459.51,313.80" /><polygon fill="#4fcfc8" points="267.18,88.77 268.71,95.44 291.04,90.14" /><polygon fill="#262640" points="291.04,389.86 268.71,384.56 267.18,391.23" /><polygon fill="#9a8dc6" points="366.34,393.46 362.44,384.07 338.58,389.54" /><polygon fill="#81f6ff" points="338.58,90.46 362.44,95.93 366.34,86.54" /><polygon fill="#454264" points="315.43,399.63 314.45,391.43 291.04,389.86" /><polygon fill="#62e6e2" points="291.04,90.14 314.45,88.57 315.43,80.37" /><polygon fill="#8df3ff" points="366.34,86.54 362.44,95.93 385.17,105.09" /><polygon fill="#bdaaef" points="385.17,374.91 362.44,384.07 366.34,393.46" /><polygon fill="#72f1f3" points="315.43,80.37 314.45,88.57 338.58,90.46" /><polygon fill="#69628f" points="338.58,389.54 314.45,391.43 315.43,399.63" /><polygon fill="#97ebff" points="385.17,105.09 406.14,117.38 411.53,110.52" /><polygon fill="#cab2ff" points="411.53,369.48 406.14,362.62 385.17,374.91" /><polygon fill="#d0b1ff" points="424.60,347.80 406.14,362.62 411.53,369.48" /><polygon fill="#9edeff" points="411.53,110.52 406.14,117.38 424.60,132.20" /><polygon fill="#947ce5" points="466.22,215.38 468.19,240.00 479.06,240.00" /><polygon fill="#8f71dc" points="479.06,240.00 468.19,240.00 466.22,264.62" /><polygon fill="#b794f3" points="446.50,334.68 440.04,330.45 424.60,347.80" /><polygon fill="#a2caff" points="424.60,132.20 440.04,149.55 446.50,145.32" /><polygon fill="#946fdd" points="466.22,264.62 460.70,288.43 469.46,290.77" /><polygon fill="#978aec" points="469.46,189.23 460.70,191.57 466.22,215.38" /><polygon fill="#9871dd" points="469.46,290.77 460.70,288.43 452.02,310.53" /><polygon fill="#9d9df8" points="452.02,169.47 460.70,191.57 469.46,189.23" /><polygon fill="#a1b3ff" points="446.50,145.32 440.04,149.55 452.02,169.47" /><polygon fill="#ab84ec" points="452.02,310.53 440.04,330.45 446.50,334.68" /><polygon fill="#1a1b35" points="166.96,217.31 164.90,240.00 173.02,240.00" /><polygon fill="#191933" points="173.02,240.00 164.90,240.00 166.96,262.69" /><polygon fill="#1b2a44" points="182.01,200.39 172.83,194.80 166.96,217.31" /><polygon fill="#191933" points="166.96,262.69 172.83,285.20 182.01,279.61" /><polygon fill="#191933" points="182.01,279.61 172.83,285.20 182.15,307.26" /><polygon fill="#1d3b54" points="182.15,172.74 172.83,194.80 182.01,200.39" /><polygon fill="#204f67" points="204.66,159.85 194.68,152.03 182.15,172.74" /><polygon fill="#191933" points="182.15,307.26 194.68,327.97 204.66,320.15" /><polygon fill="#236277" points="210.26,133.50 194.68,152.03 204.66,159.85" /><polygon fill="#191933" points="204.66,320.15 194.68,327.97 210.26,346.50" /><polygon fill="#191933" points="210.26,346.50 228.20,362.45 235.92,354.75" /><polygon fill="#287b8b" points="235.92,125.25 228.20,117.55 210.26,133.50" /><polygon fill="#3db1b8" points="270.86,103.82 268.71,95.44 247.73,104.72" /><polygon fill="#20203a" points="247.73,375.28 268.71,384.56 270.86,376.18" /><polygon fill="#3194a0" points="247.73,104.72 228.20,117.55 235.92,125.25" /><polygon fill="#1a1a34" points="235.92,354.75 228.20,362.45 247.73,375.28" /><polygon fill="#312f51" points="270.86,376.18 268.71,384.56 291.04,389.86" /><polygon fill="#4dc9d1" points="291.04,90.14 268.71,95.44 270.86,103.82" /><polygon fill="#1a1c36" points="166.96,217.31 173.02,240.00 175.45,220.39" /><polygon fill="#191933" points="173.02,240.00 166.96,262.69 175.45,259.61" /><polygon fill="#585382" points="291.04,389.86 314.45,391.43 311.48,380.09" /><polygon fill="#5ddce9" points="311.48,99.91 314.45,88.57 291.04,90.14" /><polygon fill="#6be5fa" points="338.58,90.46 314.45,88.57 311.48,99.91" /><polygon fill="#877db8" points="311.48,380.09 314.45,391.43 338.58,389.54" /><polygon fill="#1b2b45" points="182.01,200.39 166.96,217.31 175.45,220.39" /><polygon fill="#191933" points="166.96,262.69 182.01,279.61 175.45,259.61" /><polygon fill="#c1b2f9" points="338.58,389.54 362.44,384.07 357.46,371.13" /><polygon fill="#78eaff" points="357.46,108.87 362.44,95.93 338.58,90.46" /><polygon fill="#83e9ff" points="385.17,105.09 362.44,95.93 357.46,108.87" /><polygon fill="#e8d6ff" points="357.46,371.13 362.44,384.07 385.17,374.91" /><polygon fill="#1d3e57" points="182.15,172.74 182.01,200.39 191.93,179.87" /><polygon fill="#191933" points="182.01,279.61 182.15,307.26 191.93,300.13" /><polygon fill="#1f1f38" points="247.73,375.28 270.86,376.18 252.92,367.51" /><polygon fill="#3db0b7" points="270.86,103.82 247.73,104.72 252.92,112.49" /><polygon fill="#fce5ff" points="385.17,374.91 406.14,362.62 400.58,352.01" /><polygon fill="#8ee4ff" points="400.58,127.99 406.14,117.38 385.17,105.09" /><polygon fill="#e5c4ff" points="424.60,347.80 440.04,330.45 432.17,325.14" /><polygon fill="#9bc9ff" points="432.17,154.86 440.04,149.55 424.60,132.20" /><polygon fill="#191933" points="182.15,307.26 204.66,320.15 191.93,300.13" /><polygon fill="#1f4f67" points="204.66,159.85 182.15,172.74 191.93,179.87" /><polygon fill="#9cb5ff" points="452.02,169.47 440.04,149.55 432.17,154.86" /><polygon fill="#d2afff" points="432.17,325.14 440.04,330.45 452.02,310.53" /><polygon fill="#1a1a34" points="235.92,354.75 247.73,375.28 252.92,367.51" /><polygon fill="#3195a1" points="247.73,104.72 235.92,125.25 252.92,112.49" /><polygon fill="#ffe4ff" points="400.58,352.01 406.14,362.62 424.60,347.80" /><polygon fill="#96d9ff" points="424.60,132.20 406.14,117.38 400.58,127.99" /><polygon fill="#191933" points="210.26,346.50 235.92,354.75 219.57,338.66" /><polygon fill="#287a8a" points="235.92,125.25 210.26,133.50 219.57,141.34" /><polygon fill="#333254" points="270.86,376.18 291.04,389.86 290.32,380.08" /><polygon fill="#4dcbd2" points="291.04,90.14 270.86,103.82 290.32,99.92" /><polygon fill="#191933" points="204.66,320.15 210.26,346.50 219.57,338.66" /><polygon fill="#236579" points="210.26,133.50 204.66,159.85 219.57,141.34" /><polygon fill="#9893ff" points="466.22,215.38 460.70,191.57 448.30,192.94" /><polygon fill="#ac8fff" points="448.30,287.06 460.70,288.43 466.22,264.62" /><polygon fill="#b897ff" points="452.02,310.53 460.70,288.43 448.30,287.06" /><polygon fill="#9aa2ff" points="448.30,192.94 460.70,191.57 452.02,169.47" /><polygon fill="#5ddce8" points="311.48,99.91 291.04,90.14 290.32,99.92" /><polygon fill="#544f7c" points="291.04,389.86 311.48,380.09 290.32,380.08" /><polygon fill="#9b8dfe" points="453.60,240.00 468.19,240.00 466.22,215.38" /><polygon fill="#9e88fd" points="466.22,264.62 468.19,240.00 453.60,240.00" /><polygon fill="#6ce6fb" points="338.58,90.46 311.48,99.91 334.24,102.97" /><polygon fill="#8d83be" points="311.48,380.09 338.58,389.54 334.24,377.03" /><polygon fill="#78e9ff" points="357.46,108.87 338.58,90.46 334.24,102.97" /><polygon fill="#bbaef3" points="338.58,389.54 357.46,371.13 334.24,377.03" /><polygon fill="#edcdff" points="424.60,347.80 432.17,325.14 418.23,339.70" /><polygon fill="#9bc9ff" points="432.17,154.86 424.60,132.20 418.23,140.30" /><polygon fill="#cdacff" points="432.17,325.14 452.02,310.53 441.88,307.53" /><polygon fill="#9cb5ff" points="452.02,169.47 432.17,154.86 441.88,172.47" /><polygon fill="#f8dcff" points="400.58,352.01 424.60,347.80 418.23,339.70" /><polygon fill="#96daff" points="424.60,132.20 400.58,127.99 418.23,140.30" /><polygon fill="#8de4ff" points="400.58,127.99 385.17,105.09 379.95,117.36" /><polygon fill="#ffe8ff" points="385.17,374.91 400.58,352.01 379.95,362.64" /><polygon fill="#e7d5ff" points="357.46,371.13 385.17,374.91 379.95,362.64" /><polygon fill="#83e9ff" points="385.17,105.09 357.46,108.87 379.95,117.36" /><polygon fill="#191f3b" points="185.23,252.74 173.02,240.00 175.45,259.61" /><polygon fill="#1a2744" points="173.02,240.00 185.23,227.26 175.45,220.39" /><polygon fill="#9aa1ff" points="448.30,192.94 452.02,169.47 441.88,172.47" /><polygon fill="#bf9eff" points="452.02,310.53 448.30,287.06 441.88,307.53" /><polygon fill="#191d38" points="182.01,279.61 185.23,252.74 175.45,259.61" /><polygon fill="#1b3554" points="185.23,227.26 182.01,200.39 175.45,220.39" /><polygon fill="#ab8fff" points="448.30,287.06 466.22,264.62 452.26,264.14" /><polygon fill="#9a95ff" points="466.22,215.38 448.30,192.94 452.26,215.86" /><polygon fill="#9a8cfd" points="453.60,240.00 466.22,215.38 452.26,215.86" /><polygon fill="#a48eff" points="466.22,264.62 453.60,240.00 452.26,264.14" /><polygon fill="#3dadc2" points="262.16,120.21 270.86,103.82 252.92,112.49" /><polygon fill="#28284f" points="270.86,376.18 262.16,359.79 252.92,367.51" /><polygon fill="#1a213e" points="185.23,252.74 180.80,240.00 173.02,240.00" /><polygon fill="#1a2745" points="173.02,240.00 180.80,240.00 185.23,227.26" /><polygon fill="#49c0d7" points="270.86,103.82 286.46,112.07 290.32,99.92" /><polygon fill="#3e3c6a" points="286.46,367.93 270.86,376.18 290.32,380.08" /><polygon fill="#202246" points="262.16,359.79 235.92,354.75 252.92,367.51" /><polygon fill="#3396af" points="235.92,125.25 262.16,120.21 252.92,112.49" /><polygon fill="#625e99" points="311.48,380.09 286.46,367.93 290.32,380.08" /><polygon fill="#56ccea" points="286.46,112.07 311.48,99.91 290.32,99.92" /><polygon fill="#1d4767" points="182.01,200.39 204.60,190.06 191.93,179.87" /><polygon fill="#1a1d3a" points="204.60,289.94 182.01,279.61 191.93,300.13" /><polygon fill="#1a1d3a" points="204.66,320.15 204.60,289.94 191.93,300.13" /><polygon fill="#205877" points="204.60,190.06 204.66,159.85 191.93,179.87" /><polygon fill="#2c2c55" points="270.86,376.18 273.04,368.30 262.16,359.79" /><polygon fill="#3fb0c6" points="262.16,120.21 273.04,111.70 270.86,103.82" /><polygon fill="#393866" points="286.46,367.93 273.04,368.30 270.86,376.18" /><polygon fill="#47bdd4" points="270.86,103.82 273.04,111.70 286.46,112.07" /><polygon fill="#1c1e40" points="235.92,354.75 232.73,329.10 219.57,338.66" /><polygon fill="#2a7e9a" points="232.73,150.90 235.92,125.25 219.57,141.34" /><polygon fill="#1b1e3e" points="232.73,329.10 204.66,320.15 219.57,338.66" /><polygon fill="#256b89" points="204.66,159.85 232.73,150.90 219.57,141.34" /><polygon fill="#191e3a" points="182.01,279.61 193.41,270.44 185.23,252.74" /><polygon fill="#1b3756" points="185.23,227.26 193.41,209.56 182.01,200.39" /><polygon fill="#1a2b4c" points="185.23,227.26 180.80,240.00 185.23,252.74" /><polygon fill="#95c6ff" points="413.23,152.20 432.17,154.86 418.23,140.30" /><polygon fill="#fffbff" points="432.17,325.14 413.23,327.80 418.23,339.70" /><polygon fill="#fadfff" points="428.57,306.91 432.17,325.14 441.88,307.53" /><polygon fill="#98b8ff" points="432.17,154.86 428.57,173.09 441.88,172.47" /><polygon fill="#ffffff" points="413.23,327.80 400.58,352.01 418.23,339.70" /><polygon fill="#8ed1ff" points="400.58,127.99 413.23,152.20 418.23,140.30" /><polygon fill="#3396af" points="235.92,125.25 247.78,133.88 262.16,120.21" /><polygon fill="#202144" points="262.16,359.79 247.78,346.12 235.92,354.75" /><polygon fill="#a29ae2" points="327.93,360.86 311.48,380.09 334.24,377.03" /><polygon fill="#63d4fd" points="311.48,99.91 327.93,119.14 334.24,102.97" /><polygon fill="#9aacff" points="428.57,173.09 448.30,192.94 441.88,172.47" /><polygon fill="#ebd4ff" points="448.30,287.06 428.57,306.91 441.88,307.53" /><polygon fill="#1d4868" points="182.01,200.39 193.41,209.56 204.60,190.06" /><polygon fill="#191c39" points="204.60,289.94 193.41,270.44 182.01,279.61" /><polygon fill="#6ed8ff" points="327.93,119.14 357.46,108.87 334.24,102.97" /><polygon fill="#d7ccff" points="357.46,371.13 327.93,360.86 334.24,377.03" /><polygon fill="#393a6c" points="262.16,359.79 273.04,368.30 286.46,367.93" /><polygon fill="#42b1d0" points="286.46,112.07 273.04,111.70 262.16,120.21" /><polygon fill="#95c4ff" points="413.23,152.20 424.94,159.84 432.17,154.86" /><polygon fill="#fff9ff" points="432.17,325.14 424.94,320.16 413.23,327.80" /><polygon fill="#66629c" points="311.48,380.09 305.82,365.53 286.46,367.93" /><polygon fill="#56cdeb" points="286.46,112.07 305.82,114.47 311.48,99.91" /><polygon fill="#ffecff" points="428.57,306.91 424.94,320.16 432.17,325.14" /><polygon fill="#98baff" points="432.17,154.86 424.94,159.84 428.57,173.09" /><polygon fill="#84d8ff" points="374.32,133.81 400.58,127.99 379.95,117.36" /><polygon fill="#ffffff" points="400.58,352.01 374.32,346.19 379.95,362.64" /><polygon fill="#1c1f41" points="235.92,354.75 247.78,346.12 232.73,329.10" /><polygon fill="#2a809b" points="232.73,150.90 247.78,133.88 235.92,125.25" /><polygon fill="#ffffff" points="374.32,346.19 357.46,371.13 379.95,362.64" /><polygon fill="#7adaff" points="357.46,108.87 374.32,133.81 379.95,117.36" /><polygon fill="#215a7a" points="204.60,190.06 217.99,170.05 204.66,159.85" /><polygon fill="#1a1e3c" points="204.66,320.15 217.99,309.95 204.60,289.94" /><polygon fill="#1a1e3d" points="232.73,329.10 217.99,309.95 204.66,320.15" /><polygon fill="#256b8a" points="204.66,159.85 217.99,170.05 232.73,150.90" /><polygon fill="#1b2d4f" points="185.23,227.26 185.23,252.74 195.39,240.00" /><polygon fill="#a2a9ff" points="448.30,192.94 434.22,215.51 452.26,215.86" /><polygon fill="#d1c0ff" points="434.22,264.49 448.30,287.06 452.26,264.14" /><polygon fill="#63d4fc" points="311.48,99.91 305.82,114.47 327.93,119.14" /><polygon fill="#9b93d9" points="327.93,360.86 305.82,365.53 311.48,380.09" /><polygon fill="#aba9ff" points="434.22,215.51 453.60,240.00 452.26,215.86" /><polygon fill="#c0b6ff" points="453.60,240.00 434.22,264.49 452.26,264.14" /><polygon fill="#8ed2ff" points="400.58,127.99 395.47,142.83 413.23,152.20" /><polygon fill="#ffffff" points="413.23,327.80 395.47,337.17 400.58,352.01" /><polygon fill="#ebd4ff" points="448.30,287.06 432.05,287.33 428.57,306.91" /><polygon fill="#9caeff" points="428.57,173.09 432.05,192.67 448.30,192.94" /><polygon fill="#95c1ff" points="428.57,173.09 424.94,159.84 413.23,152.20" /><polygon fill="#ffffff" points="413.23,327.80 424.94,320.16 428.57,306.91" /><polygon fill="#3b3c70" points="262.16,359.79 286.46,367.93 277.20,353.68" /><polygon fill="#42b0d1" points="286.46,112.07 262.16,120.21 277.20,126.32" /><polygon fill="#85d9ff" points="374.32,133.81 395.47,142.83 400.58,127.99" /><polygon fill="#ffffff" points="400.58,352.01 395.47,337.17 374.32,346.19" /><polygon fill="#ddd2ff" points="357.46,371.13 351.29,354.28 327.93,360.86" /><polygon fill="#6fd8ff" points="327.93,119.14 351.29,125.72 357.46,108.87" /><polygon fill="#1d3d63" points="206.75,222.98 193.41,209.56 185.23,227.26" /><polygon fill="#1c2d53" points="185.23,252.74 193.41,270.44 206.75,257.02" /><polygon fill="#79daff" points="357.46,108.87 351.29,125.72 374.32,133.81" /><polygon fill="#fffcff" points="374.32,346.19 351.29,354.28 357.46,371.13" /><polygon fill="#dbc9ff" points="434.22,264.49 432.05,287.33 448.30,287.06" /><polygon fill="#a2a8ff" points="448.30,192.94 432.05,192.67 434.22,215.51" /><polygon fill="#1c2d53" points="185.23,252.74 206.75,257.02 195.39,240.00" /><polygon fill="#1d3e64" points="206.75,222.98 185.23,227.26 195.39,240.00" /><polygon fill="#2d3266" points="264.36,337.07 247.78,346.12 262.16,359.79" /><polygon fill="#3899c0" points="262.16,120.21 247.78,133.88 264.36,142.93" /><polygon fill="#1d2c55" points="206.75,257.02 193.41,270.44 204.60,289.94" /><polygon fill="#204f78" points="204.60,190.06 193.41,209.56 206.75,222.98" /><polygon fill="#b2b0ff" points="434.22,215.51 434.97,240.00 453.60,240.00" /><polygon fill="#c1b6ff" points="453.60,240.00 434.97,240.00 434.22,264.49" /><polygon fill="#6465a8" points="286.46,367.93 305.82,365.53 296.80,347.89" /><polygon fill="#4cb8e5" points="296.80,132.11 305.82,114.47 286.46,112.07" /><polygon fill="#96c2ff" points="428.57,173.09 413.23,152.20 411.67,169.06" /><polygon fill="#ffffff" points="413.23,327.80 428.57,306.91 411.67,310.94" /><polygon fill="#252e61" points="232.73,329.10 247.78,346.12 264.36,337.07" /><polygon fill="#2f83ae" points="264.36,142.93 247.78,133.88 232.73,150.90" /><polygon fill="#30356a" points="264.36,337.07 262.16,359.79 277.20,353.68" /><polygon fill="#389bc3" points="262.16,120.21 264.36,142.93 277.20,126.32" /><polygon fill="#5c5d9e" points="286.46,367.93 296.80,347.89 277.20,353.68" /><polygon fill="#4bb6e3" points="296.80,132.11 286.46,112.07 277.20,126.32" /><polygon fill="#57bdf6" points="327.93,119.14 305.82,114.47 296.80,132.11" /><polygon fill="#9b99ea" points="296.80,347.89 305.82,365.53 327.93,360.86" /><polygon fill="#24608b" points="234.95,182.81 217.99,170.05 204.60,190.06" /><polygon fill="#1e2c58" points="204.60,289.94 217.99,309.95 234.95,297.19" /><polygon fill="#202b59" points="234.95,297.19 217.99,309.95 232.73,329.10" /><polygon fill="#29709b" points="232.73,150.90 217.99,170.05 234.95,182.81" /><polygon fill="#ffffff" points="391.48,317.80 395.47,337.17 413.23,327.80" /><polygon fill="#8fcbff" points="413.23,152.20 395.47,142.83 391.48,162.20" /><polygon fill="#ffffff" points="428.57,306.91 432.05,287.33 411.89,289.95" /><polygon fill="#a0c1ff" points="411.89,190.05 432.05,192.67 428.57,173.09" /><polygon fill="#1f3f6d" points="206.75,257.02 206.75,222.98 195.39,240.00" /><polygon fill="#1d2d56" points="206.75,257.02 204.60,289.94 220.23,276.49" /><polygon fill="#205079" points="204.60,190.06 206.75,222.98 220.23,203.51" /><polygon fill="#ffffff" points="374.32,346.19 395.47,337.17 391.48,317.80" /><polygon fill="#84d0ff" points="391.48,162.20 395.47,142.83 374.32,133.81" /><polygon fill="#90ccff" points="413.23,152.20 391.48,162.20 411.67,169.06" /><polygon fill="#ffffff" points="391.48,317.80 413.23,327.80 411.67,310.94" /><polygon fill="#a0c1ff" points="411.89,190.05 428.57,173.09 411.67,169.06" /><polygon fill="#ffffff" points="428.57,306.91 411.89,289.95 411.67,310.94" /><polygon fill="#2f85af" points="264.36,142.93 232.73,150.90 249.97,162.18" /><polygon fill="#252d5f" points="232.73,329.10 264.36,337.07 249.97,317.82" /><polygon fill="#ffffff" points="411.89,289.95 432.05,287.33 434.22,264.49" /><polygon fill="#b2c6ff" points="434.22,215.51 432.05,192.67 411.89,190.05" /><polygon fill="#409fd5" points="264.36,142.93 296.80,132.11 277.20,126.32" /><polygon fill="#4d549a" points="296.80,347.89 264.36,337.07 277.20,353.68" /><polygon fill="#66c6ff" points="343.86,146.74 351.29,125.72 327.93,119.14" /><polygon fill="#e5e1ff" points="327.93,360.86 351.29,354.28 343.86,333.26" /><polygon fill="#1e2b57" points="204.60,289.94 234.95,297.19 220.23,276.49" /><polygon fill="#24618b" points="234.95,182.81 204.60,190.06 220.23,203.51" /><polygon fill="#74cbff" points="374.32,133.81 351.29,125.72 343.86,146.74" /><polygon fill="#ffffff" points="343.86,333.26 351.29,354.28 374.32,346.19" /><polygon fill="#29739e" points="232.73,150.90 234.95,182.81 249.97,162.18" /><polygon fill="#202c5c" points="234.95,297.19 232.73,329.10 249.97,317.82" /><polygon fill="#58bef6" points="327.93,119.14 296.80,132.11 319.49,139.07" /><polygon fill="#9e9ceb" points="296.80,347.89 327.93,360.86 319.49,340.93" /><polygon fill="#cfdaff" points="412.04,240.00 434.97,240.00 434.22,215.51" /><polygon fill="#e7eaff" points="434.22,264.49 434.97,240.00 412.04,240.00" /><polygon fill="#1f3f6e" points="206.75,257.02 221.94,240.00 206.75,222.98" /><polygon fill="#ffffff" points="374.32,346.19 391.48,317.80 368.38,325.39" /><polygon fill="#84cfff" points="391.48,162.20 374.32,133.81 368.38,154.61" /><polygon fill="#ffffff" points="411.89,289.95 391.48,317.80 411.67,310.94" /><polygon fill="#9fd0ff" points="391.48,162.20 411.89,190.05 411.67,169.06" /><polygon fill="#64c4ff" points="343.86,146.74 327.93,119.14 319.49,139.07" /><polygon fill="#d9d5ff" points="327.93,360.86 343.86,333.26 319.49,340.93" /><polygon fill="#ffffff" points="411.89,289.95 434.22,264.49 412.01,265.80" /><polygon fill="#b7ccff" points="434.22,215.51 411.89,190.05 412.01,214.20" /><polygon fill="#76cdff" points="374.32,133.81 343.86,146.74 368.38,154.61" /><polygon fill="#ffffff" points="343.86,333.26 374.32,346.19 368.38,325.39" /><polygon fill="#41a0d6" points="264.36,142.93 285.04,152.50 296.80,132.11" /><polygon fill="#4d5498" points="296.80,347.89 285.04,327.50 264.36,337.07" /><polygon fill="#213e73" points="238.78,259.78 206.75,257.02 220.23,276.49" /><polygon fill="#245286" points="206.75,222.98 238.78,220.22 220.23,203.51" /><polygon fill="#cfdaff" points="412.04,240.00 434.22,215.51 412.01,214.20" /><polygon fill="#f3f5ff" points="434.22,264.49 412.04,240.00 412.01,265.80" /><polygon fill="#354385" points="264.36,337.07 271.30,304.87 249.97,317.82" /><polygon fill="#3688c1" points="271.30,175.13 264.36,142.93 249.97,162.18" /><polygon fill="#245286" points="206.75,222.98 221.94,240.00 238.78,220.22" /><polygon fill="#213e73" points="238.78,259.78 221.94,240.00 206.75,257.02" /><polygon fill="#29639a" points="238.78,220.22 234.95,182.81 220.23,203.51" /><polygon fill="#243c76" points="234.95,297.19 238.78,259.78 220.23,276.49" /><polygon fill="#ffffff" points="411.89,289.95 388.36,294.48 391.48,317.80" /><polygon fill="#a1d2ff" points="391.48,162.20 388.36,185.52 411.89,190.05" /><polygon fill="#8991e4" points="308.97,317.34 296.80,347.89 319.49,340.93" /><polygon fill="#4da8eb" points="296.80,132.11 308.97,162.66 319.49,139.07" /><polygon fill="#2f75af" points="234.95,182.81 271.30,175.13 249.97,162.18" /><polygon fill="#2b3f7e" points="271.30,304.87 234.95,297.19 249.97,317.82" /><polygon fill="#3b498d" points="264.36,337.07 285.04,327.50 271.30,304.87" /><polygon fill="#378bc4" points="271.30,175.13 285.04,152.50 264.36,142.93" /><polygon fill="#7b82d4" points="308.97,317.34 285.04,327.50 296.80,347.89" /><polygon fill="#4ba5e7" points="296.80,132.11 285.04,152.50 308.97,162.66" /><polygon fill="#90d0ff" points="362.20,179.68 391.48,162.20 368.38,154.61" /><polygon fill="#ffffff" points="391.48,317.80 362.20,300.32 368.38,325.39" /><polygon fill="#c5cbff" points="343.86,333.26 308.97,317.34 319.49,340.93" /><polygon fill="#5eb1fe" points="308.97,162.66 343.86,146.74 319.49,139.07" /><polygon fill="#c1e5ff" points="411.89,190.05 385.77,211.93 412.01,214.20" /><polygon fill="#ffffff" points="385.77,268.07 411.89,289.95 412.01,265.80" /><polygon fill="#7bc6ff" points="343.86,146.74 362.20,179.68 368.38,154.61" /><polygon fill="#ffffff" points="362.20,300.32 343.86,333.26 368.38,325.39" /><polygon fill="#95d3ff" points="362.20,179.68 388.36,185.52 391.48,162.20" /><polygon fill="#ffffff" points="391.48,317.80 388.36,294.48 362.20,300.32" /><polygon fill="#253d78" points="234.95,297.19 255.77,281.69 238.78,259.78" /><polygon fill="#29649c" points="238.78,220.22 255.77,198.31 234.95,182.81" /><polygon fill="#27508e" points="238.78,220.22 221.94,240.00 238.78,259.78" /><polygon fill="#2b3e7c" points="271.30,304.87 255.77,281.69 234.95,297.19" /><polygon fill="#2f77b0" points="234.95,182.81 255.77,198.31 271.30,175.13" /><polygon fill="#bee2ff" points="411.89,190.05 388.36,185.52 385.77,211.93" /><polygon fill="#ffffff" points="385.77,268.07 388.36,294.48 411.89,289.95" /><polygon fill="#ffffff" points="412.04,240.00 385.77,268.07 412.01,265.80" /><polygon fill="#e3fbff" points="385.77,211.93 412.04,240.00 412.01,214.20" /><polygon fill="#418fd6" points="308.97,162.66 285.04,152.50 271.30,175.13" /><polygon fill="#5e6fc1" points="271.30,304.87 285.04,327.50 308.97,317.34" /><polygon fill="#cbd1ff" points="343.86,333.26 335.12,307.84 308.97,317.34" /><polygon fill="#60b4ff" points="308.97,162.66 335.12,172.16 343.86,146.74" /><polygon fill="#77c2ff" points="343.86,146.74 335.12,172.16 362.20,179.68" /><polygon fill="#ffffff" points="362.20,300.32 335.12,307.84 343.86,333.26" /><polygon fill="#b0e2ff" points="385.77,211.93 388.36,185.52 362.20,179.68" /><polygon fill="#ffffff" points="362.20,300.32 388.36,294.48 385.77,268.07" /><polygon fill="#ffffff" points="412.04,240.00 384.62,240.00 385.77,268.07" /><polygon fill="#e8ffff" points="385.77,211.93 384.62,240.00 412.04,240.00" /><polygon fill="#285190" points="238.78,220.22 238.78,259.78 260.09,240.00" /><polygon fill="#5f6fc1" points="271.30,304.87 308.97,317.34 296.52,290.38" /><polygon fill="#4291d8" points="308.97,162.66 271.30,175.13 296.52,189.62" /><polygon fill="#2f64a9" points="280.62,216.64 255.77,198.31 238.78,220.22" /><polygon fill="#2f5198" points="238.78,259.78 255.77,281.69 280.62,263.36" /><polygon fill="#3779c0" points="271.30,175.13 255.77,198.31 280.62,216.64" /><polygon fill="#3d56a3" points="280.62,263.36 255.77,281.69 271.30,304.87" /><polygon fill="#2f65aa" points="280.62,216.64 238.78,220.22 260.09,240.00" /><polygon fill="#2e5197" points="238.78,259.78 280.62,263.36 260.09,240.00" /><polygon fill="#ffffff" points="362.20,300.32 385.77,268.07 355.86,271.27" /><polygon fill="#aedfff" points="385.77,211.93 362.20,179.68 355.86,208.73" /><polygon fill="#a8b9ff" points="308.97,317.34 335.12,307.84 325.05,277.92" /><polygon fill="#5ca4f9" points="325.05,202.08 335.12,172.16 308.97,162.66" /><polygon fill="#445eac" points="280.62,263.36 271.30,304.87 296.52,290.38" /><polygon fill="#397cc4" points="271.30,175.13 280.62,216.64 296.52,189.62" /><polygon fill="#80beff" points="362.20,179.68 335.12,172.16 325.05,202.08" /><polygon fill="#e9f9ff" points="325.05,277.92 335.12,307.84 362.20,300.32" /><polygon fill="#579ef2" points="325.05,202.08 308.97,162.66 296.52,189.62" /><polygon fill="#95a6ff" points="308.97,317.34 325.05,277.92 296.52,290.38" /><polygon fill="#ffffff" points="385.77,268.07 384.62,240.00 352.66,240.00" /><polygon fill="#d9feff" points="352.66,240.00 384.62,240.00 385.77,211.93" /><polygon fill="#88c5ff" points="362.20,179.68 325.05,202.08 355.86,208.73" /><polygon fill="#f2ffff" points="325.05,277.92 362.20,300.32 355.86,271.27" /><polygon fill="#ffffff" points="385.77,268.07 352.66,240.00 355.86,271.27" /><polygon fill="#d0f5ff" points="352.66,240.00 385.77,211.93 355.86,208.73" /><polygon fill="#3d69b9" points="280.62,263.36 280.62,216.64 260.09,240.00" /><polygon fill="#4f89df" points="280.62,216.64 325.05,202.08 296.52,189.62" /><polygon fill="#6b89e5" points="325.05,277.92 280.62,263.36 296.52,290.38" /><polygon fill="#c7e5ff" points="352.66,240.00 325.05,277.92 355.86,271.27" /><polygon fill="#9cccff" points="325.05,202.08 352.66,240.00 355.86,208.73" /><polygon fill="#426fc0" points="280.62,263.36 312.54,240.00 280.62,216.64" /><polygon fill="#538fe5" points="280.62,216.64 312.54,240.00 325.05,202.08" /><polygon fill="#6d8be5" points="325.05,277.92 312.54,240.00 280.62,263.36" /><polygon fill="#b7d4ff" points="352.66,240.00 312.54,240.00 325.05,277.92" /><polygon fill="#91c0ff" points="325.05,202.08 312.54,240.00 352.66,240.00" /></g></svg>