<?xml version="1.0"?>
<svg fill="none" font-family="Arial" font-size="12" height="200" version="1.1" width="600" xmlns:xlink="http://www.w3.org/1999/xlink" xmlns="http://www.w3.org/2000/svg"><text fill="red" x="300.00" y="170.00">:chaikin</text><text fill="blue" x="300.00" y="186.00">:cubic-bezier</text><g stroke="red"><polygon points="10.00,10.00 60.00,60.00 110.00,10.00 110.00,60.00 85.00,80.00 110.00,100.00 110.00,150.00 60.00,100.00 10.00,150.00 10.00,100.00 35.00,80.00 10.00,60.00" /><circle cx="10.00" cy="10.00" r="1.5" /><circle cx="60.00" cy="60.00" r="1.5" /><circle cx="110.00" cy="10.00" r="1.5" /><circle cx="110.00" cy="60.00" r="1.5" /><circle cx="85.00" cy="80.00" r="1.5" /><circle cx="110.00" cy="100.00" r="1.5" /><circle cx="110.00" cy="150.00" r="1.5" /><circle cx="60.00" cy="100.00" r="1.5" /><circle cx="10.00" cy="150.00" r="1.5" /><circle cx="10.00" cy="100.00" r="1.5" /><circle cx="35.00" cy="80.00" r="1.5" /><circle cx="10.00" cy="60.00" r="1.5" /></g><g stroke="red"><polygon points="130.00,22.50 142.50,22.50 167.50,47.50 192.50,47.50 217.50,22.50 230.00,22.50 230.00,47.50 223.75,65.00 211.25,75.00 211.25,85.00 223.75,95.00 230.00,112.50 230.00,137.50 217.50,137.50 192.50,112.50 167.50,112.50 142.50,137.50 130.00,137.50 130.00,112.50 136.25,95.00 148.75,85.00 148.75,75.00 136.25,65.00 130.00,47.50" /><circle cx="130.00" cy="22.50" r="1.5" /><circle cx="142.50" cy="22.50" r="1.5" /><circle cx="167.50" cy="47.50" r="1.5" /><circle cx="192.50" cy="47.50" r="1.5" /><circle cx="217.50" cy="22.50" r="1.5" /><circle cx="230.00" cy="22.50" r="1.5" /><circle cx="230.00" cy="47.50" r="1.5" /><circle cx="223.75" cy="65.00" r="1.5" /><circle cx="211.25" cy="75.00" r="1.5" /><circle cx="211.25" cy="85.00" r="1.5" /><circle cx="223.75" cy="95.00" r="1.5" /><circle cx="230.00" cy="112.50" r="1.5" /><circle cx="230.00" cy="137.50" r="1.5" /><circle cx="217.50" cy="137.50" r="1.5" /><circle cx="192.50" cy="112.50" r="1.5" /><circle cx="167.50" cy="112.50" r="1.5" /><circle cx="142.50" cy="137.50" r="1.5" /><circle cx="130.00" cy="137.50" r="1.5" /><circle cx="130.00" cy="112.50" r="1.5" /><circle cx="136.25" cy="95.00" r="1.5" /><circle cx="148.75" cy="85.00" r="1.5" /><circle cx="148.75" cy="75.00" r="1.5" /><circle cx="136.25" cy="65.00" r="1.5" /><circle cx="130.00" cy="47.50" r="1.5" /></g><g stroke="red"><polygon points="250.00,28.75 253.13,22.50 259.38,22.50 268.75,28.75 281.25,41.25 293.75,47.50 306.25,47.50 318.75,41.25 331.25,28.75 340.63,22.50 346.88,22.50 350.00,28.75 350.00,41.25 348.44,51.88 345.31,60.63 340.63,67.50 334.38,72.50 331.25,77.50 331.25,82.50 334.38,87.50 340.63,92.50 345.31,99.38 348.44,108.13 350.00,118.75 350.00,131.25 346.88,137.50 340.63,137.50 331.25,131.25 318.75,118.75 306.25,112.50 293.75,112.50 281.25,118.75 268.75,131.25 259.38,137.50 253.13,137.50 250.00,131.25 250.00,118.75 251.56,108.13 254.69,99.38 259.38,92.50 265.63,87.50 268.75,82.50 268.75,77.50 265.63,72.50 259.38,67.50 254.69,60.63 251.56,51.88 250.00,41.25" /><circle cx="250.00" cy="28.75" r="1.5" /><circle cx="253.13" cy="22.50" r="1.5" /><circle cx="259.38" cy="22.50" r="1.5" /><circle cx="268.75" cy="28.75" r="1.5" /><circle cx="281.25" cy="41.25" r="1.5" /><circle cx="293.75" cy="47.50" r="1.5" /><circle cx="306.25" cy="47.50" r="1.5" /><circle cx="318.75" cy="41.25" r="1.5" /><circle cx="331.25" cy="28.75" r="1.5" /><circle cx="340.63" cy="22.50" r="1.5" /><circle cx="346.88" cy="22.50" r="1.5" /><circle cx="350.00" cy="28.75" r="1.5" /><circle cx="350.00" cy="41.25" r="1.5" /><circle cx="348.44" cy="51.88" r="1.5" /><circle cx="345.31" cy="60.63" r="1.5" /><circle cx="340.63" cy="67.50" r="1.5" /><circle cx="334.38" cy="72.50" r="1.5" /><circle cx="331.25" cy="77.50" r="1.5" /><circle cx="331.25" cy="82.50" r="1.5" /><circle cx="334.38" cy="87.50" r="1.5" /><circle cx="340.63" cy="92.50" r="1.5" /><circle cx="345.31" cy="99.38" r="1.5" /><circle cx="348.44" cy="108.13" r="1.5" /><circle cx="350.00" cy="118.75" r="1.5" /><circle cx="350.00" cy="131.25" r="1.5" /><circle cx="346.88" cy="137.50" r="1.5" /><circle cx="340.63" cy="137.50" r="1.5" /><circle cx="331.25" cy="131.25" r="1.5" /><circle cx="318.75" cy="118.75" r="1.5" /><circle cx="306.25" cy="112.50" r="1.5" /><circle cx="293.75" cy="112.50" r="1.5" /><circle cx="281.25" cy="118.75" r="1.5" /><circle cx="268.75" cy="131.25" r="1.5" /><circle cx="259.38" cy="137.50" r="1.5" /><circle cx="253.13" cy="137.50" r="1.5" /><circle cx="250.00" cy="131.25" r="1.5" /><circle cx="250.00" cy="118.75" r="1.5" /><circle cx="251.56" cy="108.13" r="1.5" /><circle cx="254.69" cy="99.38" r="1.5" /><circle cx="259.38" cy="92.50" r="1.5" /><circle cx="265.63" cy="87.50" r="1.5" /><circle cx="268.75" cy="82.50" r="1.5" /><circle cx="268.75" cy="77.50" r="1.5" /><circle cx="265.63" cy="72.50" r="1.5" /><circle cx="259.38" cy="67.50" r="1.5" /><circle cx="254.69" cy="60.63" r="1.5" /><circle cx="251.56" cy="51.88" r="1.5" /><circle cx="250.00" cy="41.25" r="1.5" /></g><g stroke="red"><polygon points="370.00,31.88 370.78,27.19 372.34,24.06 374.69,22.50 377.81,22.50 381.72,24.06 386.41,27.19 391.88,31.88 398.13,38.13 404.38,42.81 410.63,45.94 416.88,47.50 423.13,47.50 429.38,45.94 435.63,42.81 441.88,38.13 448.13,31.88 453.59,27.19 458.28,24.06 462.19,22.50 465.31,22.50 467.66,24.06 469.22,27.19 470.00,31.88 470.00,38.13 469.61,43.91 468.83,49.22 467.66,54.06 466.09,58.44 464.14,62.34 461.80,65.78 459.06,68.75 455.94,71.25 453.59,73.75 452.03,76.25 451.25,78.75 451.25,81.25 452.03,83.75 453.59,86.25 455.94,88.75 459.06,91.25 461.80,94.22 464.14,97.66 466.09,101.56 467.66,105.94 468.83,110.78 469.61,116.09 470.00,121.88 470.00,128.13 469.22,132.81 467.66,135.94 465.31,137.50 462.19,137.50 458.28,135.94 453.59,132.81 448.13,128.13 441.88,121.88 435.63,117.19 429.38,114.06 423.13,112.50 416.88,112.50 410.63,114.06 404.38,117.19 398.13,121.88 391.88,128.13 386.41,132.81 381.72,135.94 377.81,137.50 374.69,137.50 372.34,135.94 370.78,132.81 370.00,128.13 370.00,121.88 370.39,116.09 371.17,110.78 372.34,105.94 373.91,101.56 375.86,97.66 378.20,94.22 380.94,91.25 384.06,88.75 386.41,86.25 387.97,83.75 388.75,81.25 388.75,78.75 387.97,76.25 386.41,73.75 384.06,71.25 380.94,68.75 378.20,65.78 375.86,62.34 373.91,58.44 372.34,54.06 371.17,49.22 370.39,43.91 370.00,38.13" /><circle cx="370.00" cy="31.88" r="1.5" /><circle cx="370.78" cy="27.19" r="1.5" /><circle cx="372.34" cy="24.06" r="1.5" /><circle cx="374.69" cy="22.50" r="1.5" /><circle cx="377.81" cy="22.50" r="1.5" /><circle cx="381.72" cy="24.06" r="1.5" /><circle cx="386.41" cy="27.19" r="1.5" /><circle cx="391.88" cy="31.88" r="1.5" /><circle cx="398.13" cy="38.13" r="1.5" /><circle cx="404.38" cy="42.81" r="1.5" /><circle cx="410.63" cy="45.94" r="1.5" /><circle cx="416.88" cy="47.50" r="1.5" /><circle cx="423.13" cy="47.50" r="1.5" /><circle cx="429.38" cy="45.94" r="1.5" /><circle cx="435.63" cy="42.81" r="1.5" /><circle cx="441.88" cy="38.13" r="1.5" /><circle cx="448.13" cy="31.88" r="1.5" /><circle cx="453.59" cy="27.19" r="1.5" /><circle cx="458.28" cy="24.06" r="1.5" /><circle cx="462.19" cy="22.50" r="1.5" /><circle cx="465.31" cy="22.50" r="1.5" /><circle cx="467.66" cy="24.06" r="1.5" /><circle cx="469.22" cy="27.19" r="1.5" /><circle cx="470.00" cy="31.88" r="1.5" /><circle cx="470.00" cy="38.13" r="1.5" /><circle cx="469.61" cy="43.91" r="1.5" /><circle cx="468.83" cy="49.22" r="1.5" /><circle cx="467.66" cy="54.06" r="1.5" /><circle cx="466.09" cy="58.44" r="1.5" /><circle cx="464.14" cy="62.34" r="1.5" /><circle cx="461.80" cy="65.78" r="1.5" /><circle cx="459.06" cy="68.75" r="1.5" /><circle cx="455.94" cy="71.25" r="1.5" /><circle cx="453.59" cy="73.75" r="1.5" /><circle cx="452.03" cy="76.25" r="1.5" /><circle cx="451.25" cy="78.75" r="1.5" /><circle cx="451.25" cy="81.25" r="1.5" /><circle cx="452.03" cy="83.75" r="1.5" /><circle cx="453.59" cy="86.25" r="1.5" /><circle cx="455.94" cy="88.75" r="1.5" /><circle cx="459.06" cy="91.25" r="1.5" /><circle cx="461.80" cy="94.22" r="1.5" /><circle cx="464.14" cy="97.66" r="1.5" /><circle cx="466.09" cy="101.56" r="1.5" /><circle cx="467.66" cy="105.94" r="1.5" /><circle cx="468.83" cy="110.78" r="1.5" /><circle cx="469.61" cy="116.09" r="1.5" /><circle cx="470.00" cy="121.88" r="1.5" /><circle cx="470.00" cy="128.13" r="1.5" /><circle cx="469.22" cy="132.81" r="1.5" /><circle cx="467.66" cy="135.94" r="1.5" /><circle cx="465.31" cy="137.50" r="1.5" /><circle cx="462.19" cy="137.50" r="1.5" /><circle cx="458.28" cy="135.94" r="1.5" /><circle cx="453.59" cy="132.81" r="1.5" /><circle cx="448.13" cy="128.13" r="1.5" /><circle cx="441.88" cy="121.88" r="1.5" /><circle cx="435.63" cy="117.19" r="1.5" /><circle cx="429.38" cy="114.06" r="1.5" /><circle cx="423.13" cy="112.50" r="1.5" /><circle cx="416.88" cy="112.50" r="1.5" /><circle cx="410.63" cy="114.06" r="1.5" /><circle cx="404.38" cy="117.19" r="1.5" /><circle cx="398.13" cy="121.88" r="1.5" /><circle cx="391.88" cy="128.13" r="1.5" /><circle cx="386.41" cy="132.81" r="1.5" /><circle cx="381.72" cy="135.94" r="1.5" /><circle cx="377.81" cy="137.50" r="1.5" /><circle cx="374.69" cy="137.50" r="1.5" /><circle cx="372.34" cy="135.94" r="1.5" /><circle cx="370.78" cy="132.81" r="1.5" /><circle cx="370.00" cy="128.13" r="1.5" /><circle cx="370.00" cy="121.88" r="1.5" /><circle cx="370.39" cy="116.09" r="1.5" /><circle cx="371.17" cy="110.78" r="1.5" /><circle cx="372.34" cy="105.94" r="1.5" /><circle cx="373.91" cy="101.56" r="1.5" /><circle cx="375.86" cy="97.66" r="1.5" /><circle cx="378.20" cy="94.22" r="1.5" /><circle cx="380.94" cy="91.25" r="1.5" /><circle cx="384.06" cy="88.75" r="1.5" /><circle cx="386.41" cy="86.25" r="1.5" /><circle cx="387.97" cy="83.75" r="1.5" /><circle cx="388.75" cy="81.25" r="1.5" /><circle cx="388.75" cy="78.75" r="1.5" /><circle cx="387.97" cy="76.25" r="1.5" /><circle cx="386.41" cy="73.75" r="1.5" /><circle cx="384.06" cy="71.25" r="1.5" /><circle cx="380.94" cy="68.75" r="1.5" /><circle cx="378.20" cy="65.78" r="1.5" /><circle cx="375.86" cy="62.34" r="1.5" /><circle cx="373.91" cy="58.44" r="1.5" /><circle cx="372.34" cy="54.06" r="1.5" /><circle cx="371.17" cy="49.22" r="1.5" /><circle cx="370.39" cy="43.91" r="1.5" /><circle cx="370.00" cy="38.13" r="1.5" /></g><g stroke="red"><polygon points="490.00,33.44 490.20,30.70 490.59,28.36 491.17,26.41 491.95,24.84 492.93,23.67 494.10,22.89 495.47,22.50 497.03,22.50 498.79,22.89 500.74,23.67 502.89,24.84 505.23,26.41 507.77,28.36 510.51,30.70 513.44,33.44 516.56,36.56 519.69,39.30 522.81,41.64 525.94,43.59 529.06,45.16 532.19,46.33 535.31,47.11 538.44,47.50 541.56,47.50 544.69,47.11 547.81,46.33 550.94,45.16 554.06,43.59 557.19,41.64 560.31,39.30 563.44,36.56 566.56,33.44 569.49,30.70 572.23,28.36 574.77,26.41 577.11,24.84 579.26,23.67 581.21,22.89 582.97,22.50 584.53,22.50 585.90,22.89 587.07,23.67 588.05,24.84 588.83,26.41 589.41,28.36 589.80,30.70 590.00,33.44 590.00,36.56 589.90,39.57 589.71,42.46 589.41,45.23 589.02,47.89 588.54,50.43 587.95,52.85 587.27,55.16 586.48,57.34 585.61,59.41 584.63,61.37 583.55,63.20 582.38,64.92 581.11,66.52 579.75,68.01 578.28,69.38 576.72,70.63 575.35,71.88 574.18,73.13 573.20,74.38 572.42,75.63 571.84,76.88 571.45,78.13 571.25,79.38 571.25,80.63 571.45,81.88 571.84,83.13 572.42,84.38 573.20,85.63 574.18,86.88 575.35,88.13 576.72,89.38 578.28,90.63 579.75,91.99 581.11,93.48 582.38,95.08 583.55,96.80 584.63,98.63 585.61,100.59 586.48,102.66 587.27,104.84 587.95,107.15 588.54,109.57 589.02,112.11 589.41,114.77 589.71,117.54 589.90,120.43 590.00,123.44 590.00,126.56 589.80,129.30 589.41,131.64 588.83,133.59 588.05,135.16 587.07,136.33 585.90,137.11 584.53,137.50 582.97,137.50 581.21,137.11 579.26,136.33 577.11,135.16 574.77,133.59 572.23,131.64 569.49,129.30 566.56,126.56 563.44,123.44 560.31,120.70 557.19,118.36 554.06,116.41 550.94,114.84 547.81,113.67 544.69,112.89 541.56,112.50 538.44,112.50 535.31,112.89 532.19,113.67 529.06,114.84 525.94,116.41 522.81,118.36 519.69,120.70 516.56,123.44 513.44,126.56 510.51,129.30 507.77,131.64 505.23,133.59 502.89,135.16 500.74,136.33 498.79,137.11 497.03,137.50 495.47,137.50 494.10,137.11 492.93,136.33 491.95,135.16 491.17,133.59 490.59,131.64 490.20,129.30 490.00,126.56 490.00,123.44 490.10,120.43 490.29,117.54 490.59,114.77 490.98,112.11 491.46,109.57 492.05,107.15 492.73,104.84 493.52,102.66 494.39,100.59 495.37,98.63 496.45,96.80 497.62,95.08 498.89,93.48 500.25,91.99 501.72,90.63 503.28,89.38 504.65,88.13 505.82,86.88 506.80,85.63 507.58,84.38 508.16,83.13 508.55,81.88 508.75,80.63 508.75,79.38 508.55,78.13 508.16,76.88 507.58,75.63 506.80,74.38 505.82,73.13 504.65,71.88 503.28,70.63 501.72,69.38 500.25,68.01 498.89,66.52 497.62,64.92 496.45,63.20 495.37,61.37 494.39,59.41 493.52,57.34 492.73,55.16 492.05,52.85 491.46,50.43 490.98,47.89 490.59,45.23 490.29,42.46 490.10,39.57 490.00,36.56" /><circle cx="490.00" cy="33.44" r="1.5" /><circle cx="490.20" cy="30.70" r="1.5" /><circle cx="490.59" cy="28.36" r="1.5" /><circle cx="491.17" cy="26.41" r="1.5" /><circle cx="491.95" cy="24.84" r="1.5" /><circle cx="492.93" cy="23.67" r="1.5" /><circle cx="494.10" cy="22.89" r="1.5" /><circle cx="495.47" cy="22.50" r="1.5" /><circle cx="497.03" cy="22.50" r="1.5" /><circle cx="498.79" cy="22.89" r="1.5" /><circle cx="500.74" cy="23.67" r="1.5" /><circle cx="502.89" cy="24.84" r="1.5" /><circle cx="505.23" cy="26.41" r="1.5" /><circle cx="507.77" cy="28.36" r="1.5" /><circle cx="510.51" cy="30.70" r="1.5" /><circle cx="513.44" cy="33.44" r="1.5" /><circle cx="516.56" cy="36.56" r="1.5" /><circle cx="519.69" cy="39.30" r="1.5" /><circle cx="522.81" cy="41.64" r="1.5" /><circle cx="525.94" cy="43.59" r="1.5" /><circle cx="529.06" cy="45.16" r="1.5" /><circle cx="532.19" cy="46.33" r="1.5" /><circle cx="535.31" cy="47.11" r="1.5" /><circle cx="538.44" cy="47.50" r="1.5" /><circle cx="541.56" cy="47.50" r="1.5" /><circle cx="544.69" cy="47.11" r="1.5" /><circle cx="547.81" cy="46.33" r="1.5" /><circle cx="550.94" cy="45.16" r="1.5" /><circle cx="554.06" cy="43.59" r="1.5" /><circle cx="557.19" cy="41.64" r="1.5" /><circle cx="560.31" cy="39.30" r="1.5" /><circle cx="563.44" cy="36.56" r="1.5" /><circle cx="566.56" cy="33.44" r="1.5" /><circle cx="569.49" cy="30.70" r="1.5" /><circle cx="572.23" cy="28.36" r="1.5" /><circle cx="574.77" cy="26.41" r="1.5" /><circle cx="577.11" cy="24.84" r="1.5" /><circle cx="579.26" cy="23.67" r="1.5" /><circle cx="581.21" cy="22.89" r="1.5" /><circle cx="582.97" cy="22.50" r="1.5" /><circle cx="584.53" cy="22.50" r="1.5" /><circle cx="585.90" cy="22.89" r="1.5" /><circle cx="587.07" cy="23.67" r="1.5" /><circle cx="588.05" cy="24.84" r="1.5" /><circle cx="588.83" cy="26.41" r="1.5" /><circle cx="589.41" cy="28.36" r="1.5" /><circle cx="589.80" cy="30.70" r="1.5" /><circle cx="590.00" cy="33.44" r="1.5" /><circle cx="590.00" cy="36.56" r="1.5" /><circle cx="589.90" cy="39.57" r="1.5" /><circle cx="589.71" cy="42.46" r="1.5" /><circle cx="589.41" cy="45.23" r="1.5" /><circle cx="589.02" cy="47.89" r="1.5" /><circle cx="588.54" cy="50.43" r="1.5" /><circle cx="587.95" cy="52.85" r="1.5" /><circle cx="587.27" cy="55.16" r="1.5" /><circle cx="586.48" cy="57.34" r="1.5" /><circle cx="585.61" cy="59.41" r="1.5" /><circle cx="584.63" cy="61.37" r="1.5" /><circle cx="583.55" cy="63.20" r="1.5" /><circle cx="582.38" cy="64.92" r="1.5" /><circle cx="581.11" cy="66.52" r="1.5" /><circle cx="579.75" cy="68.01" r="1.5" /><circle cx="578.28" cy="69.38" r="1.5" /><circle cx="576.72" cy="70.63" r="1.5" /><circle cx="575.35" cy="71.88" r="1.5" /><circle cx="574.18" cy="73.13" r="1.5" /><circle cx="573.20" cy="74.38" r="1.5" /><circle cx="572.42" cy="75.63" r="1.5" /><circle cx="571.84" cy="76.88" r="1.5" /><circle cx="571.45" cy="78.13" r="1.5" /><circle cx="571.25" cy="79.38" r="1.5" /><circle cx="571.25" cy="80.63" r="1.5" /><circle cx="571.45" cy="81.88" r="1.5" /><circle cx="571.84" cy="83.13" r="1.5" /><circle cx="572.42" cy="84.38" r="1.5" /><circle cx="573.20" cy="85.63" r="1.5" /><circle cx="574.18" cy="86.88" r="1.5" /><circle cx="575.35" cy="88.13" r="1.5" /><circle cx="576.72" cy="89.38" r="1.5" /><circle cx="578.28" cy="90.63" r="1.5" /><circle cx="579.75" cy="91.99" r="1.5" /><circle cx="581.11" cy="93.48" r="1.5" /><circle cx="582.38" cy="95.08" r="1.5" /><circle cx="583.55" cy="96.80" r="1.5" /><circle cx="584.63" cy="98.63" r="1.5" /><circle cx="585.61" cy="100.59" r="1.5" /><circle cx="586.48" cy="102.66" r="1.5" /><circle cx="587.27" cy="104.84" r="1.5" /><circle cx="587.95" cy="107.15" r="1.5" /><circle cx="588.54" cy="109.57" r="1.5" /><circle cx="589.02" cy="112.11" r="1.5" /><circle cx="589.41" cy="114.77" r="1.5" /><circle cx="589.71" cy="117.54" r="1.5" /><circle cx="589.90" cy="120.43" r="1.5" /><circle cx="590.00" cy="123.44" r="1.5" /><circle cx="590.00" cy="126.56" r="1.5" /><circle cx="589.80" cy="129.30" r="1.5" /><circle cx="589.41" cy="131.64" r="1.5" /><circle cx="588.83" cy="133.59" r="1.5" /><circle cx="588.05" cy="135.16" r="1.5" /><circle cx="587.07" cy="136.33" r="1.5" /><circle cx="585.90" cy="137.11" r="1.5" /><circle cx="584.53" cy="137.50" r="1.5" /><circle cx="582.97" cy="137.50" r="1.5" /><circle cx="581.21" cy="137.11" r="1.5" /><circle cx="579.26" cy="136.33" r="1.5" /><circle cx="577.11" cy="135.16" r="1.5" /><circle cx="574.77" cy="133.59" r="1.5" /><circle cx="572.23" cy="131.64" r="1.5" /><circle cx="569.49" cy="129.30" r="1.5" /><circle cx="566.56" cy="126.56" r="1.5" /><circle cx="563.44" cy="123.44" r="1.5" /><circle cx="560.31" cy="120.70" r="1.5" /><circle cx="557.19" cy="118.36" r="1.5" /><circle cx="554.06" cy="116.41" r="1.5" /><circle cx="550.94" cy="114.84" r="1.5" /><circle cx="547.81" cy="113.67" r="1.5" /><circle cx="544.69" cy="112.89" r="1.5" /><circle cx="541.56" cy="112.50" r="1.5" /><circle cx="538.44" cy="112.50" r="1.5" /><circle cx="535.31" cy="112.89" r="1.5" /><circle cx="532.19" cy="113.67" r="1.5" /><circle cx="529.06" cy="114.84" r="1.5" /><circle cx="525.94" cy="116.41" r="1.5" /><circle cx="522.81" cy="118.36" r="1.5" /><circle cx="519.69" cy="120.70" r="1.5" /><circle cx="516.56" cy="123.44" r="1.5" /><circle cx="513.44" cy="126.56" r="1.5" /><circle cx="510.51" cy="129.30" r="1.5" /><circle cx="507.77" cy="131.64" r="1.5" /><circle cx="505.23" cy="133.59" r="1.5" /><circle cx="502.89" cy="135.16" r="1.5" /><circle cx="500.74" cy="136.33" r="1.5" /><circle cx="498.79" cy="137.11" r="1.5" /><circle cx="497.03" cy="137.50" r="1.5" /><circle cx="495.47" cy="137.50" r="1.5" /><circle cx="494.10" cy="137.11" r="1.5" /><circle cx="492.93" cy="136.33" r="1.5" /><circle cx="491.95" cy="135.16" r="1.5" /><circle cx="491.17" cy="133.59" r="1.5" /><circle cx="490.59" cy="131.64" r="1.5" /><circle cx="490.20" cy="129.30" r="1.5" /><circle cx="490.00" cy="126.56" r="1.5" /><circle cx="490.00" cy="123.44" r="1.5" /><circle cx="490.10" cy="120.43" r="1.5" /><circle cx="490.29" cy="117.54" r="1.5" /><circle cx="490.59" cy="114.77" r="1.5" /><circle cx="490.98" cy="112.11" r="1.5" /><circle cx="491.46" cy="109.57" r="1.5" /><circle cx="492.05" cy="107.15" r="1.5" /><circle cx="492.73" cy="104.84" r="1.5" /><circle cx="493.52" cy="102.66" r="1.5" /><circle cx="494.39" cy="100.59" r="1.5" /><circle cx="495.37" cy="98.63" r="1.5" /><circle cx="496.45" cy="96.80" r="1.5" /><circle cx="497.62" cy="95.08" r="1.5" /><circle cx="498.89" cy="93.48" r="1.5" /><circle cx="500.25" cy="91.99" r="1.5" /><circle cx="501.72" cy="90.63" r="1.5" /><circle cx="503.28" cy="89.38" r="1.5" /><circle cx="504.65" cy="88.13" r="1.5" /><circle cx="505.82" cy="86.88" r="1.5" /><circle cx="506.80" cy="85.63" r="1.5" /><circle cx="507.58" cy="84.38" r="1.5" /><circle cx="508.16" cy="83.13" r="1.5" /><circle cx="508.55" cy="81.88" r="1.5" /><circle cx="508.75" cy="80.63" r="1.5" /><circle cx="508.75" cy="79.38" r="1.5" /><circle cx="508.55" cy="78.13" r="1.5" /><circle cx="508.16" cy="76.88" r="1.5" /><circle cx="507.58" cy="75.63" r="1.5" /><circle cx="506.80" cy="74.38" r="1.5" /><circle cx="505.82" cy="73.13" r="1.5" /><circle cx="504.65" cy="71.88" r="1.5" /><circle cx="503.28" cy="70.63" r="1.5" /><circle cx="501.72" cy="69.38" r="1.5" /><circle cx="500.25" cy="68.01" r="1.5" /><circle cx="498.89" cy="66.52" r="1.5" /><circle cx="497.62" cy="64.92" r="1.5" /><circle cx="496.45" cy="63.20" r="1.5" /><circle cx="495.37" cy="61.37" r="1.5" /><circle cx="494.39" cy="59.41" r="1.5" /><circle cx="493.52" cy="57.34" r="1.5" /><circle cx="492.73" cy="55.16" r="1.5" /><circle cx="492.05" cy="52.85" r="1.5" /><circle cx="491.46" cy="50.43" r="1.5" /><circle cx="490.98" cy="47.89" r="1.5" /><circle cx="490.59" cy="45.23" r="1.5" /><circle cx="490.29" cy="42.46" r="1.5" /><circle cx="490.10" cy="39.57" r="1.5" /><circle cx="490.00" cy="36.56" r="1.5" /></g><g stroke="blue"><polygon points="10.00,10.00 60.00,60.00 110.00,10.00 110.00,60.00 85.00,80.00 110.00,100.00 110.00,150.00 60.00,100.00 10.00,150.00 10.00,100.00 35.00,80.00 10.00,60.00" /><circle cx="10.00" cy="10.00" r="1.5" /><circle cx="60.00" cy="60.00" r="1.5" /><circle cx="110.00" cy="10.00" r="1.5" /><circle cx="110.00" cy="60.00" r="1.5" /><circle cx="85.00" cy="80.00" r="1.5" /><circle cx="110.00" cy="100.00" r="1.5" /><circle cx="110.00" cy="150.00" r="1.5" /><circle cx="60.00" cy="100.00" r="1.5" /><circle cx="10.00" cy="150.00" r="1.5" /><circle cx="10.00" cy="100.00" r="1.5" /><circle cx="35.00" cy="80.00" r="1.5" /><circle cx="10.00" cy="60.00" r="1.5" /></g><g stroke="blue"><polygon points="136.25,22.50 155.00,35.00 180.00,47.50 205.00,35.00 223.75,22.50 230.00,35.00 226.88,56.25 217.50,70.00 211.25,80.00 217.50,90.00 226.88,103.75 230.00,125.00 223.75,137.50 205.00,125.00 180.00,112.50 155.00,125.00 136.25,137.50 130.00,125.00 133.13,103.75 142.50,90.00 148.75,80.00 142.50,70.00 133.13,56.25 130.00,35.00" /><circle cx="136.25" cy="22.50" r="1.5" /><circle cx="155.00" cy="35.00" r="1.5" /><circle cx="180.00" cy="47.50" r="1.5" /><circle cx="205.00" cy="35.00" r="1.5" /><circle cx="223.75" cy="22.50" r="1.5" /><circle cx="230.00" cy="35.00" r="1.5" /><circle cx="226.88" cy="56.25" r="1.5" /><circle cx="217.50" cy="70.00" r="1.5" /><circle cx="211.25" cy="80.00" r="1.5" /><circle cx="217.50" cy="90.00" r="1.5" /><circle cx="226.88" cy="103.75" r="1.5" /><circle cx="230.00" cy="125.00" r="1.5" /><circle cx="223.75" cy="137.50" r="1.5" /><circle cx="205.00" cy="125.00" r="1.5" /><circle cx="180.00" cy="112.50" r="1.5" /><circle cx="155.00" cy="125.00" r="1.5" /><circle cx="136.25" cy="137.50" r="1.5" /><circle cx="130.00" cy="125.00" r="1.5" /><circle cx="133.13" cy="103.75" r="1.5" /><circle cx="142.50" cy="90.00" r="1.5" /><circle cx="148.75" cy="80.00" r="1.5" /><circle cx="142.50" cy="70.00" r="1.5" /><circle cx="133.13" cy="56.25" r="1.5" /><circle cx="130.00" cy="35.00" r="1.5" /></g><g stroke="blue"><polygon points="257.81,25.63 265.63,28.75 275.78,35.00 287.50,41.25 300.00,44.38 312.50,41.25 324.22,35.00 334.38,28.75 342.19,25.63 346.88,28.75 348.83,36.09 348.44,45.63 346.09,55.31 342.19,63.13 337.89,69.53 334.38,75.00 332.81,80.00 334.38,85.00 337.89,90.47 342.19,96.88 346.09,104.69 348.44,114.38 348.83,123.91 346.88,131.25 342.19,134.38 334.38,131.25 324.22,125.00 312.50,118.75 300.00,115.63 287.50,118.75 275.78,125.00 265.63,131.25 257.81,134.38 253.13,131.25 251.17,123.91 251.56,114.38 253.91,104.69 257.81,96.88 262.11,90.47 265.63,85.00 267.19,80.00 265.63,75.00 262.11,69.53 257.81,63.13 253.91,55.31 251.56,45.63 251.17,36.09 253.13,28.75" /><circle cx="257.81" cy="25.63" r="1.5" /><circle cx="265.63" cy="28.75" r="1.5" /><circle cx="275.78" cy="35.00" r="1.5" /><circle cx="287.50" cy="41.25" r="1.5" /><circle cx="300.00" cy="44.38" r="1.5" /><circle cx="312.50" cy="41.25" r="1.5" /><circle cx="324.22" cy="35.00" r="1.5" /><circle cx="334.38" cy="28.75" r="1.5" /><circle cx="342.19" cy="25.63" r="1.5" /><circle cx="346.88" cy="28.75" r="1.5" /><circle cx="348.83" cy="36.09" r="1.5" /><circle cx="348.44" cy="45.63" r="1.5" /><circle cx="346.09" cy="55.31" r="1.5" /><circle cx="342.19" cy="63.13" r="1.5" /><circle cx="337.89" cy="69.53" r="1.5" /><circle cx="334.38" cy="75.00" r="1.5" /><circle cx="332.81" cy="80.00" r="1.5" /><circle cx="334.38" cy="85.00" r="1.5" /><circle cx="337.89" cy="90.47" r="1.5" /><circle cx="342.19" cy="96.88" r="1.5" /><circle cx="346.09" cy="104.69" r="1.5" /><circle cx="348.44" cy="114.38" r="1.5" /><circle cx="348.83" cy="123.91" r="1.5" /><circle cx="346.88" cy="131.25" r="1.5" /><circle cx="342.19" cy="134.38" r="1.5" /><circle cx="334.38" cy="131.25" r="1.5" /><circle cx="324.22" cy="125.00" r="1.5" /><circle cx="312.50" cy="118.75" r="1.5" /><circle cx="300.00" cy="115.63" r="1.5" /><circle cx="287.50" cy="118.75" r="1.5" /><circle cx="275.78" cy="125.00" r="1.5" /><circle cx="265.63" cy="131.25" r="1.5" /><circle cx="257.81" cy="134.38" r="1.5" /><circle cx="253.13" cy="131.25" r="1.5" /><circle cx="251.17" cy="123.91" r="1.5" /><circle cx="251.56" cy="114.38" r="1.5" /><circle cx="253.91" cy="104.69" r="1.5" /><circle cx="257.81" cy="96.88" r="1.5" /><circle cx="262.11" cy="90.47" r="1.5" /><circle cx="265.63" cy="85.00" r="1.5" /><circle cx="267.19" cy="80.00" r="1.5" /><circle cx="265.63" cy="75.00" r="1.5" /><circle cx="262.11" cy="69.53" r="1.5" /><circle cx="257.81" cy="63.13" r="1.5" /><circle cx="253.91" cy="55.31" r="1.5" /><circle cx="251.56" cy="45.63" r="1.5" /><circle cx="251.17" cy="36.09" r="1.5" /><circle cx="253.13" cy="28.75" r="1.5" /></g><g stroke="blue"><polygon points="378.20,26.41 381.72,27.19 385.92,29.14 390.70,31.88 395.98,35.00 401.64,38.13 407.60,40.86 413.75,42.81 420.00,43.59 426.25,42.81 432.40,40.86 438.36,38.13 444.02,35.00 449.30,31.88 454.08,29.14 458.28,27.19 461.80,26.41 464.53,27.19 466.53,29.28 467.85,32.42 468.54,36.37 468.63,40.86 468.19,45.64 467.27,50.47 465.90,55.08 464.14,59.22 462.14,62.95 460.04,66.33 457.99,69.41 456.13,72.27 454.62,74.94 453.59,77.50 453.20,80.00 453.59,82.50 454.62,85.06 456.13,87.73 457.99,90.59 460.04,93.67 462.14,97.05 464.14,100.78 465.90,104.92 467.27,109.53 468.19,114.36 468.63,119.14 468.54,123.63 467.85,127.58 466.53,130.72 464.53,132.81 461.80,133.59 458.28,132.81 454.08,130.86 449.30,128.13 444.02,125.00 438.36,121.88 432.40,119.14 426.25,117.19 420.00,116.41 413.75,117.19 407.60,119.14 401.64,121.88 395.98,125.00 390.70,128.13 385.92,130.86 381.72,132.81 378.20,133.59 375.47,132.81 373.47,130.72 372.15,127.58 371.46,123.63 371.37,119.14 371.81,114.36 372.73,109.53 374.10,104.92 375.86,100.78 377.86,97.05 379.96,93.67 382.01,90.59 383.87,87.73 385.38,85.06 386.41,82.50 386.80,80.00 386.41,77.50 385.38,74.94 383.87,72.27 382.01,69.41 379.96,66.33 377.86,62.95 375.86,59.22 374.10,55.08 372.73,50.47 371.81,45.64 371.37,40.86 371.46,36.37 372.15,32.42 373.47,29.28 375.47,27.19" /><circle cx="378.20" cy="26.41" r="1.5" /><circle cx="381.72" cy="27.19" r="1.5" /><circle cx="385.92" cy="29.14" r="1.5" /><circle cx="390.70" cy="31.88" r="1.5" /><circle cx="395.98" cy="35.00" r="1.5" /><circle cx="401.64" cy="38.13" r="1.5" /><circle cx="407.60" cy="40.86" r="1.5" /><circle cx="413.75" cy="42.81" r="1.5" /><circle cx="420.00" cy="43.59" r="1.5" /><circle cx="426.25" cy="42.81" r="1.5" /><circle cx="432.40" cy="40.86" r="1.5" /><circle cx="438.36" cy="38.13" r="1.5" /><circle cx="444.02" cy="35.00" r="1.5" /><circle cx="449.30" cy="31.88" r="1.5" /><circle cx="454.08" cy="29.14" r="1.5" /><circle cx="458.28" cy="27.19" r="1.5" /><circle cx="461.80" cy="26.41" r="1.5" /><circle cx="464.53" cy="27.19" r="1.5" /><circle cx="466.53" cy="29.28" r="1.5" /><circle cx="467.85" cy="32.42" r="1.5" /><circle cx="468.54" cy="36.37" r="1.5" /><circle cx="468.63" cy="40.86" r="1.5" /><circle cx="468.19" cy="45.64" r="1.5" /><circle cx="467.27" cy="50.47" r="1.5" /><circle cx="465.90" cy="55.08" r="1.5" /><circle cx="464.14" cy="59.22" r="1.5" /><circle cx="462.14" cy="62.95" r="1.5" /><circle cx="460.04" cy="66.33" r="1.5" /><circle cx="457.99" cy="69.41" r="1.5" /><circle cx="456.13" cy="72.27" r="1.5" /><circle cx="454.62" cy="74.94" r="1.5" /><circle cx="453.59" cy="77.50" r="1.5" /><circle cx="453.20" cy="80.00" r="1.5" /><circle cx="453.59" cy="82.50" r="1.5" /><circle cx="454.62" cy="85.06" r="1.5" /><circle cx="456.13" cy="87.73" r="1.5" /><circle cx="457.99" cy="90.59" r="1.5" /><circle cx="460.04" cy="93.67" r="1.5" /><circle cx="462.14" cy="97.05" r="1.5" /><circle cx="464.14" cy="100.78" r="1.5" /><circle cx="465.90" cy="104.92" r="1.5" /><circle cx="467.27" cy="109.53" r="1.5" /><circle cx="468.19" cy="114.36" r="1.5" /><circle cx="468.63" cy="119.14" r="1.5" /><circle cx="468.54" cy="123.63" r="1.5" /><circle cx="467.85" cy="127.58" r="1.5" /><circle cx="466.53" cy="130.72" r="1.5" /><circle cx="464.53" cy="132.81" r="1.5" /><circle cx="461.80" cy="133.59" r="1.5" /><circle cx="458.28" cy="132.81" r="1.5" /><circle cx="454.08" cy="130.86" r="1.5" /><circle cx="449.30" cy="128.13" r="1.5" /><circle cx="444.02" cy="125.00" r="1.5" /><circle cx="438.36" cy="121.88" r="1.5" /><circle cx="432.40" cy="119.14" r="1.5" /><circle cx="426.25" cy="117.19" r="1.5" /><circle cx="420.00" cy="116.41" r="1.5" /><circle cx="413.75" cy="117.19" r="1.5" /><circle cx="407.60" cy="119.14" r="1.5" /><circle cx="401.64" cy="121.88" r="1.5" /><circle cx="395.98" cy="125.00" r="1.5" /><circle cx="390.70" cy="128.13" r="1.5" /><circle cx="385.92" cy="130.86" r="1.5" /><circle cx="381.72" cy="132.81" r="1.5" /><circle cx="378.20" cy="133.59" r="1.5" /><circle cx="375.47" cy="132.81" r="1.5" /><circle cx="373.47" cy="130.72" r="1.5" /><circle cx="372.15" cy="127.58" r="1.5" /><circle cx="371.46" cy="123.63" r="1.5" /><circle cx="371.37" cy="119.14" r="1.5" /><circle cx="371.81" cy="114.36" r="1.5" /><circle cx="372.73" cy="109.53" r="1.5" /><circle cx="374.10" cy="104.92" r="1.5" /><circle cx="375.86" cy="100.78" r="1.5" /><circle cx="377.86" cy="97.05" r="1.5" /><circle cx="379.96" cy="93.67" r="1.5" /><circle cx="382.01" cy="90.59" r="1.5" /><circle cx="383.87" cy="87.73" r="1.5" /><circle cx="385.38" cy="85.06" r="1.5" /><circle cx="386.41" cy="82.50" r="1.5" /><circle cx="386.80" cy="80.00" r="1.5" /><circle cx="386.41" cy="77.50" r="1.5" /><circle cx="385.38" cy="74.94" r="1.5" /><circle cx="383.87" cy="72.27" r="1.5" /><circle cx="382.01" cy="69.41" r="1.5" /><circle cx="379.96" cy="66.33" r="1.5" /><circle cx="377.86" cy="62.95" r="1.5" /><circle cx="375.86" cy="59.22" r="1.5" /><circle cx="374.10" cy="55.08" r="1.5" /><circle cx="372.73" cy="50.47" r="1.5" /><circle cx="371.81" cy="45.64" r="1.5" /><circle cx="371.37" cy="40.86" r="1.5" /><circle cx="371.46" cy="36.37" r="1.5" /><circle cx="372.15" cy="32.42" r="1.5" /><circle cx="373.47" cy="29.28" r="1.5" /><circle cx="375.47" cy="27.19" r="1.5" /></g><g stroke="blue"><polygon points="498.30,26.60 499.96,26.80 501.80,27.33 503.82,28.16 505.99,29.24 508.31,30.51 510.76,31.92 513.34,33.44 516.03,35.00 518.81,36.56 521.68,38.08 524.62,39.49 527.62,40.76 530.67,41.84 533.76,42.67 536.88,43.20 540.00,43.40 543.13,43.20 546.24,42.67 549.33,41.84 552.38,40.76 555.38,39.49 558.32,38.08 561.19,36.56 563.97,35.00 566.66,33.44 569.24,31.92 571.69,30.51 574.01,29.24 576.18,28.16 578.20,27.33 580.04,26.80 581.70,26.60 583.16,26.80 584.44,27.35 585.53,28.23 586.45,29.41 587.19,30.85 587.77,32.52 588.19,34.39 588.46,36.44 588.58,38.61 588.57,40.90 588.41,43.25 588.13,45.65 587.73,48.06 587.21,50.44 586.58,52.77 585.85,55.02 585.02,57.15 584.11,59.17 583.14,61.08 582.13,62.91 581.09,64.64 580.05,66.29 579.01,67.87 578.01,69.38 577.06,70.84 576.18,72.24 575.38,73.60 574.68,74.93 574.11,76.22 573.67,77.49 573.40,78.75 573.30,80.00 573.40,81.25 573.67,82.51 574.11,83.78 574.68,85.07 575.38,86.40 576.18,87.76 577.06,89.16 578.01,90.62 579.01,92.13 580.05,93.71 581.09,95.36 582.13,97.09 583.14,98.92 584.11,100.83 585.02,102.85 585.85,104.98 586.58,107.23 587.21,109.56 587.73,111.94 588.13,114.35 588.41,116.75 588.57,119.10 588.58,121.39 588.46,123.56 588.19,125.61 587.77,127.48 587.19,129.15 586.45,130.59 585.53,131.77 584.44,132.65 583.16,133.20 581.70,133.40 580.04,133.20 578.20,132.67 576.18,131.84 574.01,130.76 571.69,129.49 569.24,128.08 566.66,126.56 563.97,125.00 561.19,123.44 558.32,121.92 555.38,120.51 552.38,119.24 549.33,118.16 546.24,117.33 543.13,116.80 540.00,116.60 536.88,116.80 533.76,117.33 530.67,118.16 527.62,119.24 524.62,120.51 521.68,121.92 518.81,123.44 516.03,125.00 513.34,126.56 510.76,128.08 508.31,129.49 505.99,130.76 503.82,131.84 501.80,132.67 499.96,133.20 498.30,133.40 496.84,133.20 495.56,132.65 494.47,131.77 493.55,130.59 492.81,129.15 492.23,127.48 491.81,125.61 491.54,123.56 491.42,121.39 491.43,119.10 491.59,116.75 491.87,114.35 492.27,111.94 492.79,109.56 493.42,107.23 494.15,104.98 494.98,102.85 495.89,100.83 496.86,98.92 497.87,97.09 498.91,95.36 499.95,93.71 500.99,92.13 501.99,90.62 502.94,89.16 503.82,87.76 504.62,86.40 505.32,85.07 505.89,83.78 506.33,82.51 506.60,81.25 506.70,80.00 506.60,78.75 506.33,77.49 505.89,76.22 505.32,74.93 504.62,73.60 503.82,72.24 502.94,70.84 501.99,69.38 500.99,67.87 499.95,66.29 498.91,64.64 497.87,62.91 496.86,61.08 495.89,59.17 494.98,57.15 494.15,55.02 493.42,52.77 492.79,50.44 492.27,48.06 491.87,45.65 491.59,43.25 491.43,40.90 491.42,38.61 491.54,36.44 491.81,34.39 492.23,32.52 492.81,30.85 493.55,29.41 494.47,28.23 495.56,27.35 496.84,26.80" /><circle cx="498.30" cy="26.60" r="1.5" /><circle cx="499.96" cy="26.80" r="1.5" /><circle cx="501.80" cy="27.33" r="1.5" /><circle cx="503.82" cy="28.16" r="1.5" /><circle cx="505.99" cy="29.24" r="1.5" /><circle cx="508.31" cy="30.51" r="1.5" /><circle cx="510.76" cy="31.92" r="1.5" /><circle cx="513.34" cy="33.44" r="1.5" /><circle cx="516.03" cy="35.00" r="1.5" /><circle cx="518.81" cy="36.56" r="1.5" /><circle cx="521.68" cy="38.08" r="1.5" /><circle cx="524.62" cy="39.49" r="1.5" /><circle cx="527.62" cy="40.76" r="1.5" /><circle cx="530.67" cy="41.84" r="1.5" /><circle cx="533.76" cy="42.67" r="1.5" /><circle cx="536.88" cy="43.20" r="1.5" /><circle cx="540.00" cy="43.40" r="1.5" /><circle cx="543.13" cy="43.20" r="1.5" /><circle cx="546.24" cy="42.67" r="1.5" /><circle cx="549.33" cy="41.84" r="1.5" /><circle cx="552.38" cy="40.76" r="1.5" /><circle cx="555.38" cy="39.49" r="1.5" /><circle cx="558.32" cy="38.08" r="1.5" /><circle cx="561.19" cy="36.56" r="1.5" /><circle cx="563.97" cy="35.00" r="1.5" /><circle cx="566.66" cy="33.44" r="1.5" /><circle cx="569.24" cy="31.92" r="1.5" /><circle cx="571.69" cy="30.51" r="1.5" /><circle cx="574.01" cy="29.24" r="1.5" /><circle cx="576.18" cy="28.16" r="1.5" /><circle cx="578.20" cy="27.33" r="1.5" /><circle cx="580.04" cy="26.80" r="1.5" /><circle cx="581.70" cy="26.60" r="1.5" /><circle cx="583.16" cy="26.80" r="1.5" /><circle cx="584.44" cy="27.35" r="1.5" /><circle cx="585.53" cy="28.23" r="1.5" /><circle cx="586.45" cy="29.41" r="1.5" /><circle cx="587.19" cy="30.85" r="1.5" /><circle cx="587.77" cy="32.52" r="1.5" /><circle cx="588.19" cy="34.39" r="1.5" /><circle cx="588.46" cy="36.44" r="1.5" /><circle cx="588.58" cy="38.61" r="1.5" /><circle cx="588.57" cy="40.90" r="1.5" /><circle cx="588.41" cy="43.25" r="1.5" /><circle cx="588.13" cy="45.65" r="1.5" /><circle cx="587.73" cy="48.06" r="1.5" /><circle cx="587.21" cy="50.44" r="1.5" /><circle cx="586.58" cy="52.77" r="1.5" /><circle cx="585.85" cy="55.02" r="1.5" /><circle cx="585.02" cy="57.15" r="1.5" /><circle cx="584.11" cy="59.17" r="1.5" /><circle cx="583.14" cy="61.08" r="1.5" /><circle cx="582.13" cy="62.91" r="1.5" /><circle cx="581.09" cy="64.64" r="1.5" /><circle cx="580.05" cy="66.29" r="1.5" /><circle cx="579.01" cy="67.87" r="1.5" /><circle cx="578.01" cy="69.38" r="1.5" /><circle cx="577.06" cy="70.84" r="1.5" /><circle cx="576.18" cy="72.24" r="1.5" /><circle cx="575.38" cy="73.60" r="1.5" /><circle cx="574.68" cy="74.93" r="1.5" /><circle cx="574.11" cy="76.22" r="1.5" /><circle cx="573.67" cy="77.49" r="1.5" /><circle cx="573.40" cy="78.75" r="1.5" /><circle cx="573.30" cy="80.00" r="1.5" /><circle cx="573.40" cy="81.25" r="1.5" /><circle cx="573.67" cy="82.51" r="1.5" /><circle cx="574.11" cy="83.78" r="1.5" /><circle cx="574.68" cy="85.07" r="1.5" /><circle cx="575.38" cy="86.40" r="1.5" /><circle cx="576.18" cy="87.76" r="1.5" /><circle cx="577.06" cy="89.16" r="1.5" /><circle cx="578.01" cy="90.62" r="1.5" /><circle cx="579.01" cy="92.13" r="1.5" /><circle cx="580.05" cy="93.71" r="1.5" /><circle cx="581.09" cy="95.36" r="1.5" /><circle cx="582.13" cy="97.09" r="1.5" /><circle cx="583.14" cy="98.92" r="1.5" /><circle cx="584.11" cy="100.83" r="1.5" /><circle cx="585.02" cy="102.85" r="1.5" /><circle cx="585.85" cy="104.98" r="1.5" /><circle cx="586.58" cy="107.23" r="1.5" /><circle cx="587.21" cy="109.56" r="1.5" /><circle cx="587.73" cy="111.94" r="1.5" /><circle cx="588.13" cy="114.35" r="1.5" /><circle cx="588.41" cy="116.75" r="1.5" /><circle cx="588.57" cy="119.10" r="1.5" /><circle cx="588.58" cy="121.39" r="1.5" /><circle cx="588.46" cy="123.56" r="1.5" /><circle cx="588.19" cy="125.61" r="1.5" /><circle cx="587.77" cy="127.48" r="1.5" /><circle cx="587.19" cy="129.15" r="1.5" /><circle cx="586.45" cy="130.59" r="1.5" /><circle cx="585.53" cy="131.77" r="1.5" /><circle cx="584.44" cy="132.65" r="1.5" /><circle cx="583.16" cy="133.20" r="1.5" /><circle cx="581.70" cy="133.40" r="1.5" /><circle cx="580.04" cy="133.20" r="1.5" /><circle cx="578.20" cy="132.67" r="1.5" /><circle cx="576.18" cy="131.84" r="1.5" /><circle cx="574.01" cy="130.76" r="1.5" /><circle cx="571.69" cy="129.49" r="1.5" /><circle cx="569.24" cy="128.08" r="1.5" /><circle cx="566.66" cy="126.56" r="1.5" /><circle cx="563.97" cy="125.00" r="1.5" /><circle cx="561.19" cy="123.44" r="1.5" /><circle cx="558.32" cy="121.92" r="1.5" /><circle cx="555.38" cy="120.51" r="1.5" /><circle cx="552.38" cy="119.24" r="1.5" /><circle cx="549.33" cy="118.16" r="1.5" /><circle cx="546.24" cy="117.33" r="1.5" /><circle cx="543.13" cy="116.80" r="1.5" /><circle cx="540.00" cy="116.60" r="1.5" /><circle cx="536.88" cy="116.80" r="1.5" /><circle cx="533.76" cy="117.33" r="1.5" /><circle cx="530.67" cy="118.16" r="1.5" /><circle cx="527.62" cy="119.24" r="1.5" /><circle cx="524.62" cy="120.51" r="1.5" /><circle cx="521.68" cy="121.92" r="1.5" /><circle cx="518.81" cy="123.44" r="1.5" /><circle cx="516.03" cy="125.00" r="1.5" /><circle cx="513.34" cy="126.56" r="1.5" /><circle cx="510.76" cy="128.08" r="1.5" /><circle cx="508.31" cy="129.49" r="1.5" /><circle cx="505.99" cy="130.76" r="1.5" /><circle cx="503.82" cy="131.84" r="1.5" /><circle cx="501.80" cy="132.67" r="1.5" /><circle cx="499.96" cy="133.20" r="1.5" /><circle cx="498.30" cy="133.40" r="1.5" /><circle cx="496.84" cy="133.20" r="1.5" /><circle cx="495.56" cy="132.65" r="1.5" /><circle cx="494.47" cy="131.77" r="1.5" /><circle cx="493.55" cy="130.59" r="1.5" /><circle cx="492.81" cy="129.15" r="1.5" /><circle cx="492.23" cy="127.48" r="1.5" /><circle cx="491.81" cy="125.61" r="1.5" /><circle cx="491.54" cy="123.56" r="1.5" /><circle cx="491.42" cy="121.39" r="1.5" /><circle cx="491.43" cy="119.10" r="1.5" /><circle cx="491.59" cy="116.75" r="1.5" /><circle cx="491.87" cy="114.35" r="1.5" /><circle cx="492.27" cy="111.94" r="1.5" /><circle cx="492.79" cy="109.56" r="1.5" /><circle cx="493.42" cy="107.23" r="1.5" /><circle cx="494.15" cy="104.98" r="1.5" /><circle cx="494.98" cy="102.85" r="1.5" /><circle cx="495.89" cy="100.83" r="1.5" /><circle cx="496.86" cy="98.92" r="1.5" /><circle cx="497.87" cy="97.09" r="1.5" /><circle cx="498.91" cy="95.36" r="1.5" /><circle cx="499.95" cy="93.71" r="1.5" /><circle cx="500.99" cy="92.13" r="1.5" /><circle cx="501.99" cy="90.62" r="1.5" /><circle cx="502.94" cy="89.16" r="1.5" /><circle cx="503.82" cy="87.76" r="1.5" /><circle cx="504.62" cy="86.40" r="1.5" /><circle cx="505.32" cy="85.07" r="1.5" /><circle cx="505.89" cy="83.78" r="1.5" /><circle cx="506.33" cy="82.51" r="1.5" /><circle cx="506.60" cy="81.25" r="1.5" /><circle cx="506.70" cy="80.00" r="1.5" /><circle cx="506.60" cy="78.75" r="1.5" /><circle cx="506.33" cy="77.49" r="1.5" /><circle cx="505.89" cy="76.22" r="1.5" /><circle cx="505.32" cy="74.93" r="1.5" /><circle cx="504.62" cy="73.60" r="1.5" /><circle cx="503.82" cy="72.24" r="1.5" /><circle cx="502.94" cy="70.84" r="1.5" /><circle cx="501.99" cy="69.38" r="1.5" /><circle cx="500.99" cy="67.87" r="1.5" /><circle cx="499.95" cy="66.29" r="1.5" /><circle cx="498.91" cy="64.64" r="1.5" /><circle cx="497.87" cy="62.91" r="1.5" /><circle cx="496.86" cy="61.08" r="1.5" /><circle cx="495.89" cy="59.17" r="1.5" /><circle cx="494.98" cy="57.15" r="1.5" /><circle cx="494.15" cy="55.02" r="1.5" /><circle cx="493.42" cy="52.77" r="1.5" /><circle cx="492.79" cy="50.44" r="1.5" /><circle cx="492.27" cy="48.06" r="1.5" /><circle cx="491.87" cy="45.65" r="1.5" /><circle cx="491.59" cy="43.25" r="1.5" /><circle cx="491.43" cy="40.90" r="1.5" /><circle cx="491.42" cy="38.61" r="1.5" /><circle cx="491.54" cy="36.44" r="1.5" /><circle cx="491.81" cy="34.39" r="1.5" /><circle cx="492.23" cy="32.52" r="1.5" /><circle cx="492.81" cy="30.85" r="1.5" /><circle cx="493.55" cy="29.41" r="1.5" /><circle cx="494.47" cy="28.23" r="1.5" /><circle cx="495.56" cy="27.35" r="1.5" /><circle cx="496.84" cy="26.80" r="1.5" /></g></svg>